G04 #@! TF.FileFunction,Legend,Top*
%FSLAX46Y46*%
G04 Gerber Fmt 4.6, Leading zero omitted, Abs format (unit mm)*
G04 Created by KiCad (PCBNEW 4.0.7-e2-6376~61~ubuntu18.04.1) date Wed Jun  6 20:56:43 2018*
%MOMM*%
%LPD*%
G01*
G04 APERTURE LIST*
%ADD10C,0.100000*%
%ADD11C,0.150000*%
%ADD12C,0.010000*%
G04 APERTURE END LIST*
D10*
D11*
X126360000Y-176960000D02*
G75*
G03X126360000Y-176960000I-400000J0D01*
G01*
D12*
G36*
X114089919Y-162790635D02*
X114147317Y-162757475D01*
X114218609Y-162767652D01*
X114242303Y-162781498D01*
X114292611Y-162846567D01*
X114297305Y-162927929D01*
X114256113Y-163008260D01*
X114246019Y-163019091D01*
X114180646Y-163054673D01*
X114118095Y-163039618D01*
X114071084Y-162978860D01*
X114060511Y-162947137D01*
X114057341Y-162857174D01*
X114089919Y-162790635D01*
X114089919Y-162790635D01*
G37*
X114089919Y-162790635D02*
X114147317Y-162757475D01*
X114218609Y-162767652D01*
X114242303Y-162781498D01*
X114292611Y-162846567D01*
X114297305Y-162927929D01*
X114256113Y-163008260D01*
X114246019Y-163019091D01*
X114180646Y-163054673D01*
X114118095Y-163039618D01*
X114071084Y-162978860D01*
X114060511Y-162947137D01*
X114057341Y-162857174D01*
X114089919Y-162790635D01*
G36*
X112708510Y-163862356D02*
X112747522Y-163738111D01*
X112815851Y-163620385D01*
X112898121Y-163548558D01*
X113008896Y-163512086D01*
X113070130Y-163504546D01*
X113164845Y-163500937D01*
X113229440Y-163514372D01*
X113289334Y-163551823D01*
X113313048Y-163571186D01*
X113374296Y-163618278D01*
X113410547Y-163629972D01*
X113436812Y-163610687D01*
X113438744Y-163608186D01*
X113534105Y-163526114D01*
X113660490Y-163479176D01*
X113802855Y-163469896D01*
X113946153Y-163500799D01*
X113983864Y-163516744D01*
X114093990Y-163598362D01*
X114176561Y-163718153D01*
X114226861Y-163862673D01*
X114240176Y-164018478D01*
X114212724Y-164169383D01*
X114162346Y-164265798D01*
X114088367Y-164345295D01*
X114003039Y-164400650D01*
X113918614Y-164424637D01*
X113847343Y-164410031D01*
X113828977Y-164395689D01*
X113797912Y-164338215D01*
X113813800Y-164269555D01*
X113878409Y-164183491D01*
X113893888Y-164167173D01*
X113960578Y-164085668D01*
X113989221Y-164010278D01*
X113992666Y-163964005D01*
X113969930Y-163863128D01*
X113910627Y-163780556D01*
X113828114Y-163731373D01*
X113780111Y-163724000D01*
X113695211Y-163749538D01*
X113615179Y-163816633D01*
X113553154Y-163911006D01*
X113524410Y-164001943D01*
X113491153Y-164114371D01*
X113440750Y-164177020D01*
X113381267Y-164190615D01*
X113320769Y-164155878D01*
X113267322Y-164073532D01*
X113235557Y-163976037D01*
X113203147Y-163860204D01*
X113166901Y-163790923D01*
X113119702Y-163758394D01*
X113072981Y-163752222D01*
X113003429Y-163775416D01*
X112962339Y-163838428D01*
X112951364Y-163931406D01*
X112972157Y-164044496D01*
X113008770Y-164134941D01*
X113048059Y-164235305D01*
X113046386Y-164305993D01*
X113002338Y-164357603D01*
X112977020Y-164372922D01*
X112932403Y-164387395D01*
X112890607Y-164369976D01*
X112839575Y-164320970D01*
X112748478Y-164184204D01*
X112704052Y-164026666D01*
X112708510Y-163862356D01*
X112708510Y-163862356D01*
G37*
X112708510Y-163862356D02*
X112747522Y-163738111D01*
X112815851Y-163620385D01*
X112898121Y-163548558D01*
X113008896Y-163512086D01*
X113070130Y-163504546D01*
X113164845Y-163500937D01*
X113229440Y-163514372D01*
X113289334Y-163551823D01*
X113313048Y-163571186D01*
X113374296Y-163618278D01*
X113410547Y-163629972D01*
X113436812Y-163610687D01*
X113438744Y-163608186D01*
X113534105Y-163526114D01*
X113660490Y-163479176D01*
X113802855Y-163469896D01*
X113946153Y-163500799D01*
X113983864Y-163516744D01*
X114093990Y-163598362D01*
X114176561Y-163718153D01*
X114226861Y-163862673D01*
X114240176Y-164018478D01*
X114212724Y-164169383D01*
X114162346Y-164265798D01*
X114088367Y-164345295D01*
X114003039Y-164400650D01*
X113918614Y-164424637D01*
X113847343Y-164410031D01*
X113828977Y-164395689D01*
X113797912Y-164338215D01*
X113813800Y-164269555D01*
X113878409Y-164183491D01*
X113893888Y-164167173D01*
X113960578Y-164085668D01*
X113989221Y-164010278D01*
X113992666Y-163964005D01*
X113969930Y-163863128D01*
X113910627Y-163780556D01*
X113828114Y-163731373D01*
X113780111Y-163724000D01*
X113695211Y-163749538D01*
X113615179Y-163816633D01*
X113553154Y-163911006D01*
X113524410Y-164001943D01*
X113491153Y-164114371D01*
X113440750Y-164177020D01*
X113381267Y-164190615D01*
X113320769Y-164155878D01*
X113267322Y-164073532D01*
X113235557Y-163976037D01*
X113203147Y-163860204D01*
X113166901Y-163790923D01*
X113119702Y-163758394D01*
X113072981Y-163752222D01*
X113003429Y-163775416D01*
X112962339Y-163838428D01*
X112951364Y-163931406D01*
X112972157Y-164044496D01*
X113008770Y-164134941D01*
X113048059Y-164235305D01*
X113046386Y-164305993D01*
X113002338Y-164357603D01*
X112977020Y-164372922D01*
X112932403Y-164387395D01*
X112890607Y-164369976D01*
X112839575Y-164320970D01*
X112748478Y-164184204D01*
X112704052Y-164026666D01*
X112708510Y-163862356D01*
G36*
X112708510Y-161802134D02*
X112747522Y-161677889D01*
X112815851Y-161560163D01*
X112898121Y-161488336D01*
X113008896Y-161451863D01*
X113070130Y-161444323D01*
X113164845Y-161440715D01*
X113229440Y-161454149D01*
X113289334Y-161491601D01*
X113313048Y-161510964D01*
X113374296Y-161558055D01*
X113410547Y-161569749D01*
X113436812Y-161550464D01*
X113438744Y-161547964D01*
X113534105Y-161465891D01*
X113660490Y-161418954D01*
X113802855Y-161409674D01*
X113946153Y-161440577D01*
X113983864Y-161456522D01*
X114093990Y-161538140D01*
X114176561Y-161657931D01*
X114226861Y-161802451D01*
X114240176Y-161958255D01*
X114212724Y-162109161D01*
X114162346Y-162205576D01*
X114088367Y-162285073D01*
X114003039Y-162340428D01*
X113918614Y-162364415D01*
X113847343Y-162349809D01*
X113828977Y-162335467D01*
X113797912Y-162277993D01*
X113813800Y-162209333D01*
X113878409Y-162123269D01*
X113893888Y-162106950D01*
X113960578Y-162025445D01*
X113989221Y-161950056D01*
X113992666Y-161903783D01*
X113969930Y-161802905D01*
X113910627Y-161720334D01*
X113828114Y-161671151D01*
X113780111Y-161663778D01*
X113695211Y-161689316D01*
X113615179Y-161756411D01*
X113553154Y-161850784D01*
X113524410Y-161941721D01*
X113491153Y-162054149D01*
X113440750Y-162116798D01*
X113381267Y-162130393D01*
X113320769Y-162095655D01*
X113267322Y-162013310D01*
X113235557Y-161915815D01*
X113203147Y-161799982D01*
X113166901Y-161730701D01*
X113119702Y-161698172D01*
X113072981Y-161692000D01*
X113003429Y-161715194D01*
X112962339Y-161778206D01*
X112951364Y-161871184D01*
X112972157Y-161984274D01*
X113008770Y-162074719D01*
X113048059Y-162175083D01*
X113046386Y-162245771D01*
X113002338Y-162297381D01*
X112977020Y-162312699D01*
X112932403Y-162327172D01*
X112890607Y-162309754D01*
X112839575Y-162260747D01*
X112748478Y-162123982D01*
X112704052Y-161966444D01*
X112708510Y-161802134D01*
X112708510Y-161802134D01*
G37*
X112708510Y-161802134D02*
X112747522Y-161677889D01*
X112815851Y-161560163D01*
X112898121Y-161488336D01*
X113008896Y-161451863D01*
X113070130Y-161444323D01*
X113164845Y-161440715D01*
X113229440Y-161454149D01*
X113289334Y-161491601D01*
X113313048Y-161510964D01*
X113374296Y-161558055D01*
X113410547Y-161569749D01*
X113436812Y-161550464D01*
X113438744Y-161547964D01*
X113534105Y-161465891D01*
X113660490Y-161418954D01*
X113802855Y-161409674D01*
X113946153Y-161440577D01*
X113983864Y-161456522D01*
X114093990Y-161538140D01*
X114176561Y-161657931D01*
X114226861Y-161802451D01*
X114240176Y-161958255D01*
X114212724Y-162109161D01*
X114162346Y-162205576D01*
X114088367Y-162285073D01*
X114003039Y-162340428D01*
X113918614Y-162364415D01*
X113847343Y-162349809D01*
X113828977Y-162335467D01*
X113797912Y-162277993D01*
X113813800Y-162209333D01*
X113878409Y-162123269D01*
X113893888Y-162106950D01*
X113960578Y-162025445D01*
X113989221Y-161950056D01*
X113992666Y-161903783D01*
X113969930Y-161802905D01*
X113910627Y-161720334D01*
X113828114Y-161671151D01*
X113780111Y-161663778D01*
X113695211Y-161689316D01*
X113615179Y-161756411D01*
X113553154Y-161850784D01*
X113524410Y-161941721D01*
X113491153Y-162054149D01*
X113440750Y-162116798D01*
X113381267Y-162130393D01*
X113320769Y-162095655D01*
X113267322Y-162013310D01*
X113235557Y-161915815D01*
X113203147Y-161799982D01*
X113166901Y-161730701D01*
X113119702Y-161698172D01*
X113072981Y-161692000D01*
X113003429Y-161715194D01*
X112962339Y-161778206D01*
X112951364Y-161871184D01*
X112972157Y-161984274D01*
X113008770Y-162074719D01*
X113048059Y-162175083D01*
X113046386Y-162245771D01*
X113002338Y-162297381D01*
X112977020Y-162312699D01*
X112932403Y-162327172D01*
X112890607Y-162309754D01*
X112839575Y-162260747D01*
X112748478Y-162123982D01*
X112704052Y-161966444D01*
X112708510Y-161802134D01*
G36*
X112725616Y-160046551D02*
X112748918Y-160022809D01*
X112788658Y-159994483D01*
X112824712Y-159988092D01*
X112876086Y-160005111D01*
X112943673Y-160037919D01*
X113011536Y-160069158D01*
X113121157Y-160116341D01*
X113261690Y-160174947D01*
X113422292Y-160240454D01*
X113592116Y-160308339D01*
X113594390Y-160309239D01*
X113757637Y-160375360D01*
X113905290Y-160438113D01*
X114028282Y-160493410D01*
X114117545Y-160537160D01*
X114164011Y-160565273D01*
X114165890Y-160567002D01*
X114212335Y-160642791D01*
X114206360Y-160717576D01*
X114169055Y-160764947D01*
X114134823Y-160790361D01*
X114091113Y-160815056D01*
X114030603Y-160841721D01*
X113945973Y-160873046D01*
X113829901Y-160911720D01*
X113675068Y-160960432D01*
X113474152Y-161021874D01*
X113448815Y-161029558D01*
X113282086Y-161078659D01*
X113128197Y-161121319D01*
X112997512Y-161154871D01*
X112900397Y-161176647D01*
X112848532Y-161184000D01*
X112757797Y-161165313D01*
X112708072Y-161113170D01*
X112704872Y-161033454D01*
X112705391Y-161031337D01*
X112711848Y-161007029D01*
X112721996Y-160987134D01*
X112742625Y-160969016D01*
X112780522Y-160950043D01*
X112842477Y-160927580D01*
X112935280Y-160898993D01*
X113065719Y-160861649D01*
X113240583Y-160812913D01*
X113338153Y-160785848D01*
X113510744Y-160736411D01*
X113631494Y-160698041D01*
X113703653Y-160669522D01*
X113730473Y-160649639D01*
X113725562Y-160641005D01*
X113684535Y-160622756D01*
X113600929Y-160588953D01*
X113485089Y-160543667D01*
X113347360Y-160490967D01*
X113270391Y-160461934D01*
X113122738Y-160405294D01*
X112989233Y-160351824D01*
X112881031Y-160306161D01*
X112809287Y-160272941D01*
X112790928Y-160262679D01*
X112723196Y-160194945D01*
X112700616Y-160118276D01*
X112725616Y-160046551D01*
X112725616Y-160046551D01*
G37*
X112725616Y-160046551D02*
X112748918Y-160022809D01*
X112788658Y-159994483D01*
X112824712Y-159988092D01*
X112876086Y-160005111D01*
X112943673Y-160037919D01*
X113011536Y-160069158D01*
X113121157Y-160116341D01*
X113261690Y-160174947D01*
X113422292Y-160240454D01*
X113592116Y-160308339D01*
X113594390Y-160309239D01*
X113757637Y-160375360D01*
X113905290Y-160438113D01*
X114028282Y-160493410D01*
X114117545Y-160537160D01*
X114164011Y-160565273D01*
X114165890Y-160567002D01*
X114212335Y-160642791D01*
X114206360Y-160717576D01*
X114169055Y-160764947D01*
X114134823Y-160790361D01*
X114091113Y-160815056D01*
X114030603Y-160841721D01*
X113945973Y-160873046D01*
X113829901Y-160911720D01*
X113675068Y-160960432D01*
X113474152Y-161021874D01*
X113448815Y-161029558D01*
X113282086Y-161078659D01*
X113128197Y-161121319D01*
X112997512Y-161154871D01*
X112900397Y-161176647D01*
X112848532Y-161184000D01*
X112757797Y-161165313D01*
X112708072Y-161113170D01*
X112704872Y-161033454D01*
X112705391Y-161031337D01*
X112711848Y-161007029D01*
X112721996Y-160987134D01*
X112742625Y-160969016D01*
X112780522Y-160950043D01*
X112842477Y-160927580D01*
X112935280Y-160898993D01*
X113065719Y-160861649D01*
X113240583Y-160812913D01*
X113338153Y-160785848D01*
X113510744Y-160736411D01*
X113631494Y-160698041D01*
X113703653Y-160669522D01*
X113730473Y-160649639D01*
X113725562Y-160641005D01*
X113684535Y-160622756D01*
X113600929Y-160588953D01*
X113485089Y-160543667D01*
X113347360Y-160490967D01*
X113270391Y-160461934D01*
X113122738Y-160405294D01*
X112989233Y-160351824D01*
X112881031Y-160306161D01*
X112809287Y-160272941D01*
X112790928Y-160262679D01*
X112723196Y-160194945D01*
X112700616Y-160118276D01*
X112725616Y-160046551D01*
G36*
X127485383Y-148610087D02*
X127542962Y-148629206D01*
X127563868Y-148641440D01*
X127622159Y-148709837D01*
X127634352Y-148800674D01*
X127606340Y-148886522D01*
X127560863Y-148929278D01*
X127503031Y-148938997D01*
X127456559Y-148913842D01*
X127448206Y-148898777D01*
X127411967Y-148872725D01*
X127341761Y-148858422D01*
X127259080Y-148857120D01*
X127185419Y-148870071D01*
X127159218Y-148881943D01*
X127134232Y-148911266D01*
X127151294Y-148945346D01*
X127214467Y-148988204D01*
X127318595Y-149039662D01*
X127468014Y-149118617D01*
X127566879Y-149197882D01*
X127620804Y-149283330D01*
X127635556Y-149371007D01*
X127617014Y-149477028D01*
X127568605Y-149546849D01*
X127467232Y-149614165D01*
X127333037Y-149657200D01*
X127185436Y-149673060D01*
X127043842Y-149658849D01*
X126972322Y-149635775D01*
X126870859Y-149572911D01*
X126823992Y-149496409D01*
X126822000Y-149443608D01*
X126835736Y-149407678D01*
X126870367Y-149387468D01*
X126934783Y-149382045D01*
X127037875Y-149390473D01*
X127162606Y-149407840D01*
X127269561Y-149412111D01*
X127345568Y-149390971D01*
X127380421Y-149347752D01*
X127381556Y-149336331D01*
X127357936Y-149314907D01*
X127295518Y-149277715D01*
X127206960Y-149232186D01*
X127191056Y-149224550D01*
X127031140Y-149138539D01*
X126923755Y-149055548D01*
X126865511Y-148970945D01*
X126853013Y-148880101D01*
X126875904Y-148794330D01*
X126930032Y-148716062D01*
X127021537Y-148660558D01*
X127156667Y-148625003D01*
X127284933Y-148610142D01*
X127404807Y-148604342D01*
X127485383Y-148610087D01*
X127485383Y-148610087D01*
G37*
X127485383Y-148610087D02*
X127542962Y-148629206D01*
X127563868Y-148641440D01*
X127622159Y-148709837D01*
X127634352Y-148800674D01*
X127606340Y-148886522D01*
X127560863Y-148929278D01*
X127503031Y-148938997D01*
X127456559Y-148913842D01*
X127448206Y-148898777D01*
X127411967Y-148872725D01*
X127341761Y-148858422D01*
X127259080Y-148857120D01*
X127185419Y-148870071D01*
X127159218Y-148881943D01*
X127134232Y-148911266D01*
X127151294Y-148945346D01*
X127214467Y-148988204D01*
X127318595Y-149039662D01*
X127468014Y-149118617D01*
X127566879Y-149197882D01*
X127620804Y-149283330D01*
X127635556Y-149371007D01*
X127617014Y-149477028D01*
X127568605Y-149546849D01*
X127467232Y-149614165D01*
X127333037Y-149657200D01*
X127185436Y-149673060D01*
X127043842Y-149658849D01*
X126972322Y-149635775D01*
X126870859Y-149572911D01*
X126823992Y-149496409D01*
X126822000Y-149443608D01*
X126835736Y-149407678D01*
X126870367Y-149387468D01*
X126934783Y-149382045D01*
X127037875Y-149390473D01*
X127162606Y-149407840D01*
X127269561Y-149412111D01*
X127345568Y-149390971D01*
X127380421Y-149347752D01*
X127381556Y-149336331D01*
X127357936Y-149314907D01*
X127295518Y-149277715D01*
X127206960Y-149232186D01*
X127191056Y-149224550D01*
X127031140Y-149138539D01*
X126923755Y-149055548D01*
X126865511Y-148970945D01*
X126853013Y-148880101D01*
X126875904Y-148794330D01*
X126930032Y-148716062D01*
X127021537Y-148660558D01*
X127156667Y-148625003D01*
X127284933Y-148610142D01*
X127404807Y-148604342D01*
X127485383Y-148610087D01*
G36*
X128727695Y-148071730D02*
X128749894Y-148093169D01*
X128765668Y-148136431D01*
X128775855Y-148207298D01*
X128781291Y-148311551D01*
X128782812Y-148454972D01*
X128781256Y-148643341D01*
X128777528Y-148878525D01*
X128772562Y-149121790D01*
X128766890Y-149313131D01*
X128760230Y-149457067D01*
X128752299Y-149558117D01*
X128742815Y-149620799D01*
X128731494Y-149649633D01*
X128729183Y-149651614D01*
X128655784Y-149673433D01*
X128588231Y-149654881D01*
X128577129Y-149645617D01*
X128528452Y-149630782D01*
X128470870Y-149645617D01*
X128337420Y-149671969D01*
X128186704Y-149663734D01*
X128044864Y-149622408D01*
X128041986Y-149621113D01*
X127914481Y-149537545D01*
X127830214Y-149420525D01*
X127786774Y-149266312D01*
X127781684Y-149217150D01*
X127785689Y-149130815D01*
X128015389Y-149130815D01*
X128017972Y-149201171D01*
X128052369Y-149283402D01*
X128106644Y-149353725D01*
X128139493Y-149378092D01*
X128257646Y-149416574D01*
X128373307Y-149399474D01*
X128428479Y-149372470D01*
X128473535Y-149341490D01*
X128498121Y-149305016D01*
X128508377Y-149246131D01*
X128510444Y-149147920D01*
X128510445Y-149146692D01*
X128506044Y-149036998D01*
X128490111Y-148966285D01*
X128458549Y-148917578D01*
X128454000Y-148912888D01*
X128374410Y-148867985D01*
X128276430Y-148859477D01*
X128177443Y-148882871D01*
X128094831Y-148933668D01*
X128045979Y-149007374D01*
X128042829Y-149019235D01*
X128026538Y-149088948D01*
X128015389Y-149130815D01*
X127785689Y-149130815D01*
X127790443Y-149028370D01*
X127844160Y-148868241D01*
X127940240Y-148741132D01*
X128076086Y-148651409D01*
X128130551Y-148630301D01*
X128251640Y-148609537D01*
X128384476Y-148615335D01*
X128489278Y-148643229D01*
X128514001Y-148648925D01*
X128528827Y-148632469D01*
X128536272Y-148583757D01*
X128538852Y-148492684D01*
X128539083Y-148443186D01*
X128548592Y-148272920D01*
X128576663Y-148154810D01*
X128623718Y-148087563D01*
X128660676Y-148071197D01*
X128698234Y-148066333D01*
X128727695Y-148071730D01*
X128727695Y-148071730D01*
G37*
X128727695Y-148071730D02*
X128749894Y-148093169D01*
X128765668Y-148136431D01*
X128775855Y-148207298D01*
X128781291Y-148311551D01*
X128782812Y-148454972D01*
X128781256Y-148643341D01*
X128777528Y-148878525D01*
X128772562Y-149121790D01*
X128766890Y-149313131D01*
X128760230Y-149457067D01*
X128752299Y-149558117D01*
X128742815Y-149620799D01*
X128731494Y-149649633D01*
X128729183Y-149651614D01*
X128655784Y-149673433D01*
X128588231Y-149654881D01*
X128577129Y-149645617D01*
X128528452Y-149630782D01*
X128470870Y-149645617D01*
X128337420Y-149671969D01*
X128186704Y-149663734D01*
X128044864Y-149622408D01*
X128041986Y-149621113D01*
X127914481Y-149537545D01*
X127830214Y-149420525D01*
X127786774Y-149266312D01*
X127781684Y-149217150D01*
X127785689Y-149130815D01*
X128015389Y-149130815D01*
X128017972Y-149201171D01*
X128052369Y-149283402D01*
X128106644Y-149353725D01*
X128139493Y-149378092D01*
X128257646Y-149416574D01*
X128373307Y-149399474D01*
X128428479Y-149372470D01*
X128473535Y-149341490D01*
X128498121Y-149305016D01*
X128508377Y-149246131D01*
X128510444Y-149147920D01*
X128510445Y-149146692D01*
X128506044Y-149036998D01*
X128490111Y-148966285D01*
X128458549Y-148917578D01*
X128454000Y-148912888D01*
X128374410Y-148867985D01*
X128276430Y-148859477D01*
X128177443Y-148882871D01*
X128094831Y-148933668D01*
X128045979Y-149007374D01*
X128042829Y-149019235D01*
X128026538Y-149088948D01*
X128015389Y-149130815D01*
X127785689Y-149130815D01*
X127790443Y-149028370D01*
X127844160Y-148868241D01*
X127940240Y-148741132D01*
X128076086Y-148651409D01*
X128130551Y-148630301D01*
X128251640Y-148609537D01*
X128384476Y-148615335D01*
X128489278Y-148643229D01*
X128514001Y-148648925D01*
X128528827Y-148632469D01*
X128536272Y-148583757D01*
X128538852Y-148492684D01*
X128539083Y-148443186D01*
X128548592Y-148272920D01*
X128576663Y-148154810D01*
X128623718Y-148087563D01*
X128660676Y-148071197D01*
X128698234Y-148066333D01*
X128727695Y-148071730D01*
G36*
X129586014Y-148615831D02*
X129687086Y-148648712D01*
X129725076Y-148665944D01*
X129851000Y-148729444D01*
X129840847Y-149003878D01*
X129838488Y-149156454D01*
X129845733Y-149271065D01*
X129864356Y-149365645D01*
X129882185Y-149421505D01*
X129911730Y-149519483D01*
X129915031Y-149582735D01*
X129903424Y-149612737D01*
X129844432Y-149663146D01*
X129772639Y-149663090D01*
X129726373Y-149634703D01*
X129689576Y-149608611D01*
X129647988Y-149604975D01*
X129580775Y-149623492D01*
X129555591Y-149632229D01*
X129397527Y-149670140D01*
X129259124Y-149662089D01*
X129159556Y-149625456D01*
X129062411Y-149547578D01*
X128989699Y-149431447D01*
X128945477Y-149291450D01*
X128938158Y-149197710D01*
X129199337Y-149197710D01*
X129223917Y-149306835D01*
X129266046Y-149371500D01*
X129339845Y-149414472D01*
X129442976Y-149413297D01*
X129510496Y-149393365D01*
X129544588Y-149377792D01*
X129565845Y-149354673D01*
X129577296Y-149312051D01*
X129581967Y-149237969D01*
X129582887Y-149120469D01*
X129582889Y-149107450D01*
X129582889Y-148849059D01*
X129480064Y-148865745D01*
X129363493Y-148908321D01*
X129274359Y-148986086D01*
X129217896Y-149086671D01*
X129199337Y-149197710D01*
X128938158Y-149197710D01*
X128933806Y-149141974D01*
X128958746Y-148997405D01*
X128972160Y-148961371D01*
X129053175Y-148833319D01*
X129172408Y-148723961D01*
X129313719Y-148644270D01*
X129460967Y-148605216D01*
X129499298Y-148603064D01*
X129586014Y-148615831D01*
X129586014Y-148615831D01*
G37*
X129586014Y-148615831D02*
X129687086Y-148648712D01*
X129725076Y-148665944D01*
X129851000Y-148729444D01*
X129840847Y-149003878D01*
X129838488Y-149156454D01*
X129845733Y-149271065D01*
X129864356Y-149365645D01*
X129882185Y-149421505D01*
X129911730Y-149519483D01*
X129915031Y-149582735D01*
X129903424Y-149612737D01*
X129844432Y-149663146D01*
X129772639Y-149663090D01*
X129726373Y-149634703D01*
X129689576Y-149608611D01*
X129647988Y-149604975D01*
X129580775Y-149623492D01*
X129555591Y-149632229D01*
X129397527Y-149670140D01*
X129259124Y-149662089D01*
X129159556Y-149625456D01*
X129062411Y-149547578D01*
X128989699Y-149431447D01*
X128945477Y-149291450D01*
X128938158Y-149197710D01*
X129199337Y-149197710D01*
X129223917Y-149306835D01*
X129266046Y-149371500D01*
X129339845Y-149414472D01*
X129442976Y-149413297D01*
X129510496Y-149393365D01*
X129544588Y-149377792D01*
X129565845Y-149354673D01*
X129577296Y-149312051D01*
X129581967Y-149237969D01*
X129582887Y-149120469D01*
X129582889Y-149107450D01*
X129582889Y-148849059D01*
X129480064Y-148865745D01*
X129363493Y-148908321D01*
X129274359Y-148986086D01*
X129217896Y-149086671D01*
X129199337Y-149197710D01*
X128938158Y-149197710D01*
X128933806Y-149141974D01*
X128958746Y-148997405D01*
X128972160Y-148961371D01*
X129053175Y-148833319D01*
X129172408Y-148723961D01*
X129313719Y-148644270D01*
X129460967Y-148605216D01*
X129499298Y-148603064D01*
X129586014Y-148615831D01*
G36*
X127826494Y-175453642D02*
X127884073Y-175472762D01*
X127904979Y-175484996D01*
X127963270Y-175553393D01*
X127975463Y-175644229D01*
X127947452Y-175730077D01*
X127901974Y-175772833D01*
X127844142Y-175782553D01*
X127797670Y-175757397D01*
X127789317Y-175742333D01*
X127753078Y-175716280D01*
X127682872Y-175701977D01*
X127600191Y-175700675D01*
X127526530Y-175713626D01*
X127500329Y-175725499D01*
X127475343Y-175754821D01*
X127492405Y-175788902D01*
X127555578Y-175831760D01*
X127659706Y-175883218D01*
X127809125Y-175962172D01*
X127907990Y-176041438D01*
X127961915Y-176126885D01*
X127976667Y-176214562D01*
X127958125Y-176320583D01*
X127909716Y-176390405D01*
X127808343Y-176457720D01*
X127674148Y-176500756D01*
X127526547Y-176516616D01*
X127384954Y-176502405D01*
X127313434Y-176479330D01*
X127211970Y-176416467D01*
X127165103Y-176339965D01*
X127163111Y-176287164D01*
X127176847Y-176251234D01*
X127211478Y-176231024D01*
X127275894Y-176225600D01*
X127378986Y-176234029D01*
X127503717Y-176251395D01*
X127610672Y-176255667D01*
X127686679Y-176234526D01*
X127721532Y-176191308D01*
X127722667Y-176179887D01*
X127699047Y-176158462D01*
X127636629Y-176121271D01*
X127548071Y-176075741D01*
X127532167Y-176068105D01*
X127372251Y-175982095D01*
X127264867Y-175899103D01*
X127206622Y-175814501D01*
X127194125Y-175723657D01*
X127217015Y-175637885D01*
X127271143Y-175559618D01*
X127362648Y-175504113D01*
X127497779Y-175468558D01*
X127626044Y-175453698D01*
X127745919Y-175447897D01*
X127826494Y-175453642D01*
X127826494Y-175453642D01*
G37*
X127826494Y-175453642D02*
X127884073Y-175472762D01*
X127904979Y-175484996D01*
X127963270Y-175553393D01*
X127975463Y-175644229D01*
X127947452Y-175730077D01*
X127901974Y-175772833D01*
X127844142Y-175782553D01*
X127797670Y-175757397D01*
X127789317Y-175742333D01*
X127753078Y-175716280D01*
X127682872Y-175701977D01*
X127600191Y-175700675D01*
X127526530Y-175713626D01*
X127500329Y-175725499D01*
X127475343Y-175754821D01*
X127492405Y-175788902D01*
X127555578Y-175831760D01*
X127659706Y-175883218D01*
X127809125Y-175962172D01*
X127907990Y-176041438D01*
X127961915Y-176126885D01*
X127976667Y-176214562D01*
X127958125Y-176320583D01*
X127909716Y-176390405D01*
X127808343Y-176457720D01*
X127674148Y-176500756D01*
X127526547Y-176516616D01*
X127384954Y-176502405D01*
X127313434Y-176479330D01*
X127211970Y-176416467D01*
X127165103Y-176339965D01*
X127163111Y-176287164D01*
X127176847Y-176251234D01*
X127211478Y-176231024D01*
X127275894Y-176225600D01*
X127378986Y-176234029D01*
X127503717Y-176251395D01*
X127610672Y-176255667D01*
X127686679Y-176234526D01*
X127721532Y-176191308D01*
X127722667Y-176179887D01*
X127699047Y-176158462D01*
X127636629Y-176121271D01*
X127548071Y-176075741D01*
X127532167Y-176068105D01*
X127372251Y-175982095D01*
X127264867Y-175899103D01*
X127206622Y-175814501D01*
X127194125Y-175723657D01*
X127217015Y-175637885D01*
X127271143Y-175559618D01*
X127362648Y-175504113D01*
X127497779Y-175468558D01*
X127626044Y-175453698D01*
X127745919Y-175447897D01*
X127826494Y-175453642D01*
G36*
X128721788Y-175466027D02*
X128809222Y-175498591D01*
X128919501Y-175561160D01*
X128975805Y-175625145D01*
X128980582Y-175693407D01*
X128979444Y-175697202D01*
X128936139Y-175755790D01*
X128863070Y-175772175D01*
X128770335Y-175744114D01*
X128769701Y-175743787D01*
X128658988Y-175705072D01*
X128564416Y-175715187D01*
X128480728Y-175776530D01*
X128402669Y-175891497D01*
X128389190Y-175917320D01*
X128349521Y-176025443D01*
X128355697Y-176112316D01*
X128408840Y-176191127D01*
X128412828Y-176195171D01*
X128488240Y-176247060D01*
X128580548Y-176261964D01*
X128700673Y-176240557D01*
X128772163Y-176217316D01*
X128857508Y-176190594D01*
X128909860Y-176186995D01*
X128947207Y-176205418D01*
X128948552Y-176206521D01*
X128990814Y-176268282D01*
X128980114Y-176334975D01*
X128919139Y-176402107D01*
X128810579Y-176465182D01*
X128787929Y-176475034D01*
X128623067Y-176514873D01*
X128456904Y-176499026D01*
X128340939Y-176453871D01*
X128238558Y-176383013D01*
X128164541Y-176283809D01*
X128149901Y-176255983D01*
X128103987Y-176122399D01*
X128103445Y-175987682D01*
X128149448Y-175841610D01*
X128210646Y-175726001D01*
X128320691Y-175578736D01*
X128441814Y-175486602D01*
X128575139Y-175449175D01*
X128721788Y-175466027D01*
X128721788Y-175466027D01*
G37*
X128721788Y-175466027D02*
X128809222Y-175498591D01*
X128919501Y-175561160D01*
X128975805Y-175625145D01*
X128980582Y-175693407D01*
X128979444Y-175697202D01*
X128936139Y-175755790D01*
X128863070Y-175772175D01*
X128770335Y-175744114D01*
X128769701Y-175743787D01*
X128658988Y-175705072D01*
X128564416Y-175715187D01*
X128480728Y-175776530D01*
X128402669Y-175891497D01*
X128389190Y-175917320D01*
X128349521Y-176025443D01*
X128355697Y-176112316D01*
X128408840Y-176191127D01*
X128412828Y-176195171D01*
X128488240Y-176247060D01*
X128580548Y-176261964D01*
X128700673Y-176240557D01*
X128772163Y-176217316D01*
X128857508Y-176190594D01*
X128909860Y-176186995D01*
X128947207Y-176205418D01*
X128948552Y-176206521D01*
X128990814Y-176268282D01*
X128980114Y-176334975D01*
X128919139Y-176402107D01*
X128810579Y-176465182D01*
X128787929Y-176475034D01*
X128623067Y-176514873D01*
X128456904Y-176499026D01*
X128340939Y-176453871D01*
X128238558Y-176383013D01*
X128164541Y-176283809D01*
X128149901Y-176255983D01*
X128103987Y-176122399D01*
X128103445Y-175987682D01*
X128149448Y-175841610D01*
X128210646Y-175726001D01*
X128320691Y-175578736D01*
X128441814Y-175486602D01*
X128575139Y-175449175D01*
X128721788Y-175466027D01*
G36*
X129393276Y-174917886D02*
X129438578Y-174943644D01*
X129450034Y-174973521D01*
X129458913Y-175040278D01*
X129465402Y-175148029D01*
X129469687Y-175300885D01*
X129471955Y-175502960D01*
X129472445Y-175689517D01*
X129472020Y-175913036D01*
X129470489Y-176086756D01*
X129467459Y-176217321D01*
X129462544Y-176311370D01*
X129455352Y-176375547D01*
X129445494Y-176416493D01*
X129432582Y-176440849D01*
X129428095Y-176445873D01*
X129357118Y-176485832D01*
X129283909Y-176478516D01*
X129252311Y-176456355D01*
X129241316Y-176417720D01*
X129232309Y-176332028D01*
X129225289Y-176208632D01*
X129220257Y-176056883D01*
X129217213Y-175886135D01*
X129216156Y-175705740D01*
X129217088Y-175525049D01*
X129220007Y-175353417D01*
X129224913Y-175200194D01*
X129231808Y-175074734D01*
X129240690Y-174986389D01*
X129251559Y-174944511D01*
X129252311Y-174943644D01*
X129316785Y-174913380D01*
X129393276Y-174917886D01*
X129393276Y-174917886D01*
G37*
X129393276Y-174917886D02*
X129438578Y-174943644D01*
X129450034Y-174973521D01*
X129458913Y-175040278D01*
X129465402Y-175148029D01*
X129469687Y-175300885D01*
X129471955Y-175502960D01*
X129472445Y-175689517D01*
X129472020Y-175913036D01*
X129470489Y-176086756D01*
X129467459Y-176217321D01*
X129462544Y-176311370D01*
X129455352Y-176375547D01*
X129445494Y-176416493D01*
X129432582Y-176440849D01*
X129428095Y-176445873D01*
X129357118Y-176485832D01*
X129283909Y-176478516D01*
X129252311Y-176456355D01*
X129241316Y-176417720D01*
X129232309Y-176332028D01*
X129225289Y-176208632D01*
X129220257Y-176056883D01*
X129217213Y-175886135D01*
X129216156Y-175705740D01*
X129217088Y-175525049D01*
X129220007Y-175353417D01*
X129224913Y-175200194D01*
X129231808Y-175074734D01*
X129240690Y-174986389D01*
X129251559Y-174944511D01*
X129252311Y-174943644D01*
X129316785Y-174913380D01*
X129393276Y-174917886D01*
G36*
X143999228Y-161407350D02*
X143945637Y-161522398D01*
X143885587Y-161589189D01*
X143807660Y-161615693D01*
X143707572Y-161610948D01*
X143628467Y-161600819D01*
X143508561Y-161587112D01*
X143363250Y-161571522D01*
X143207933Y-161555740D01*
X143185537Y-161553540D01*
X142993380Y-161531797D01*
X142848424Y-161507001D01*
X142741430Y-161475626D01*
X142663157Y-161434148D01*
X142604364Y-161379040D01*
X142560614Y-161315123D01*
X142522679Y-161214917D01*
X142499611Y-161082873D01*
X142492675Y-160940976D01*
X142503133Y-160811212D01*
X142526765Y-160726611D01*
X142571716Y-160658071D01*
X142629095Y-160635101D01*
X142636849Y-160634889D01*
X142701910Y-160646050D01*
X142740986Y-160685128D01*
X142757687Y-160760514D01*
X142755618Y-160880597D01*
X142753620Y-160906525D01*
X142749745Y-161051690D01*
X142769380Y-161153761D01*
X142817091Y-161222810D01*
X142897439Y-161268911D01*
X142921710Y-161277557D01*
X142992190Y-161297755D01*
X143035847Y-161304667D01*
X143040992Y-161303304D01*
X143036401Y-161274176D01*
X143012106Y-161215278D01*
X143005312Y-161201310D01*
X142974106Y-161082708D01*
X142982483Y-160950919D01*
X143028050Y-160830494D01*
X143043773Y-160806666D01*
X143143844Y-160714967D01*
X143277183Y-160656640D01*
X143430017Y-160633863D01*
X143492417Y-160639745D01*
X143492417Y-160891719D01*
X143383241Y-160893731D01*
X143293528Y-160930746D01*
X143276667Y-160945333D01*
X143227054Y-161023258D01*
X143232407Y-161106536D01*
X143264269Y-161164993D01*
X143358335Y-161250791D01*
X143495276Y-161303532D01*
X143638398Y-161320984D01*
X143798778Y-161326333D01*
X143807488Y-161236408D01*
X143800176Y-161146889D01*
X143770369Y-161057860D01*
X143770336Y-161057796D01*
X143702604Y-160977542D01*
X143604418Y-160920920D01*
X143492417Y-160891719D01*
X143492417Y-160639745D01*
X143588574Y-160648811D01*
X143728921Y-160698389D01*
X143864648Y-160796768D01*
X143963710Y-160929666D01*
X144021576Y-161085198D01*
X144033713Y-161251477D01*
X143999228Y-161407350D01*
X143999228Y-161407350D01*
G37*
X143999228Y-161407350D02*
X143945637Y-161522398D01*
X143885587Y-161589189D01*
X143807660Y-161615693D01*
X143707572Y-161610948D01*
X143628467Y-161600819D01*
X143508561Y-161587112D01*
X143363250Y-161571522D01*
X143207933Y-161555740D01*
X143185537Y-161553540D01*
X142993380Y-161531797D01*
X142848424Y-161507001D01*
X142741430Y-161475626D01*
X142663157Y-161434148D01*
X142604364Y-161379040D01*
X142560614Y-161315123D01*
X142522679Y-161214917D01*
X142499611Y-161082873D01*
X142492675Y-160940976D01*
X142503133Y-160811212D01*
X142526765Y-160726611D01*
X142571716Y-160658071D01*
X142629095Y-160635101D01*
X142636849Y-160634889D01*
X142701910Y-160646050D01*
X142740986Y-160685128D01*
X142757687Y-160760514D01*
X142755618Y-160880597D01*
X142753620Y-160906525D01*
X142749745Y-161051690D01*
X142769380Y-161153761D01*
X142817091Y-161222810D01*
X142897439Y-161268911D01*
X142921710Y-161277557D01*
X142992190Y-161297755D01*
X143035847Y-161304667D01*
X143040992Y-161303304D01*
X143036401Y-161274176D01*
X143012106Y-161215278D01*
X143005312Y-161201310D01*
X142974106Y-161082708D01*
X142982483Y-160950919D01*
X143028050Y-160830494D01*
X143043773Y-160806666D01*
X143143844Y-160714967D01*
X143277183Y-160656640D01*
X143430017Y-160633863D01*
X143492417Y-160639745D01*
X143492417Y-160891719D01*
X143383241Y-160893731D01*
X143293528Y-160930746D01*
X143276667Y-160945333D01*
X143227054Y-161023258D01*
X143232407Y-161106536D01*
X143264269Y-161164993D01*
X143358335Y-161250791D01*
X143495276Y-161303532D01*
X143638398Y-161320984D01*
X143798778Y-161326333D01*
X143807488Y-161236408D01*
X143800176Y-161146889D01*
X143770369Y-161057860D01*
X143770336Y-161057796D01*
X143702604Y-160977542D01*
X143604418Y-160920920D01*
X143492417Y-160891719D01*
X143492417Y-160639745D01*
X143588574Y-160648811D01*
X143728921Y-160698389D01*
X143864648Y-160796768D01*
X143963710Y-160929666D01*
X144021576Y-161085198D01*
X144033713Y-161251477D01*
X143999228Y-161407350D01*
G36*
X144047231Y-161918006D02*
X143980138Y-161981221D01*
X143931157Y-162007696D01*
X143937773Y-162032322D01*
X143964660Y-162089716D01*
X143980546Y-162120167D01*
X144029025Y-162253985D01*
X144029507Y-162377077D01*
X143983683Y-162480745D01*
X143895963Y-162554853D01*
X143841009Y-162571037D01*
X143745804Y-162586277D01*
X143622862Y-162599822D01*
X143484694Y-162610926D01*
X143343812Y-162618841D01*
X143212727Y-162622817D01*
X143103951Y-162622108D01*
X143029997Y-162615965D01*
X143005708Y-162608081D01*
X142972013Y-162549027D01*
X142971382Y-162475161D01*
X143003965Y-162416699D01*
X143057518Y-162393681D01*
X143151578Y-162372356D01*
X143270210Y-162354635D01*
X143397476Y-162342429D01*
X143517440Y-162337650D01*
X143614167Y-162342210D01*
X143619354Y-162342886D01*
X143720913Y-162345712D01*
X143774254Y-162320299D01*
X143778661Y-162267563D01*
X143736935Y-162193084D01*
X143627611Y-162092459D01*
X143477907Y-162024586D01*
X143295452Y-161992535D01*
X143232923Y-161990351D01*
X143120946Y-161985137D01*
X143037668Y-161971935D01*
X143000089Y-161955689D01*
X142970052Y-161892767D01*
X142973528Y-161818409D01*
X143004372Y-161767250D01*
X143050913Y-161748143D01*
X143139538Y-161734996D01*
X143273837Y-161727603D01*
X143457399Y-161725759D01*
X143676818Y-161728875D01*
X143822380Y-161734123D01*
X143921664Y-161743259D01*
X143984789Y-161757812D01*
X144021872Y-161779315D01*
X144024042Y-161781407D01*
X144062606Y-161849597D01*
X144047231Y-161918006D01*
X144047231Y-161918006D01*
G37*
X144047231Y-161918006D02*
X143980138Y-161981221D01*
X143931157Y-162007696D01*
X143937773Y-162032322D01*
X143964660Y-162089716D01*
X143980546Y-162120167D01*
X144029025Y-162253985D01*
X144029507Y-162377077D01*
X143983683Y-162480745D01*
X143895963Y-162554853D01*
X143841009Y-162571037D01*
X143745804Y-162586277D01*
X143622862Y-162599822D01*
X143484694Y-162610926D01*
X143343812Y-162618841D01*
X143212727Y-162622817D01*
X143103951Y-162622108D01*
X143029997Y-162615965D01*
X143005708Y-162608081D01*
X142972013Y-162549027D01*
X142971382Y-162475161D01*
X143003965Y-162416699D01*
X143057518Y-162393681D01*
X143151578Y-162372356D01*
X143270210Y-162354635D01*
X143397476Y-162342429D01*
X143517440Y-162337650D01*
X143614167Y-162342210D01*
X143619354Y-162342886D01*
X143720913Y-162345712D01*
X143774254Y-162320299D01*
X143778661Y-162267563D01*
X143736935Y-162193084D01*
X143627611Y-162092459D01*
X143477907Y-162024586D01*
X143295452Y-161992535D01*
X143232923Y-161990351D01*
X143120946Y-161985137D01*
X143037668Y-161971935D01*
X143000089Y-161955689D01*
X142970052Y-161892767D01*
X142973528Y-161818409D01*
X143004372Y-161767250D01*
X143050913Y-161748143D01*
X143139538Y-161734996D01*
X143273837Y-161727603D01*
X143457399Y-161725759D01*
X143676818Y-161728875D01*
X143822380Y-161734123D01*
X143921664Y-161743259D01*
X143984789Y-161757812D01*
X144021872Y-161779315D01*
X144024042Y-161781407D01*
X144062606Y-161849597D01*
X144047231Y-161918006D01*
G36*
X144569381Y-163702584D02*
X144547942Y-163724783D01*
X144504680Y-163740557D01*
X144433813Y-163750744D01*
X144329560Y-163756180D01*
X144186140Y-163757701D01*
X143997770Y-163756145D01*
X143762586Y-163752417D01*
X143519321Y-163747451D01*
X143327980Y-163741779D01*
X143184044Y-163735119D01*
X143082994Y-163727188D01*
X143020312Y-163717704D01*
X142991478Y-163706383D01*
X142989497Y-163704071D01*
X142967678Y-163630673D01*
X142986230Y-163563120D01*
X142995494Y-163552018D01*
X143010329Y-163503341D01*
X142995494Y-163445758D01*
X142969142Y-163312308D01*
X142977377Y-163161593D01*
X143018703Y-163019752D01*
X143019998Y-163016875D01*
X143103566Y-162889370D01*
X143220586Y-162805103D01*
X143374799Y-162761663D01*
X143423962Y-162756573D01*
X143510296Y-162760578D01*
X143510296Y-162990278D01*
X143439940Y-162992861D01*
X143357709Y-163027258D01*
X143287386Y-163081533D01*
X143263019Y-163114382D01*
X143224537Y-163232535D01*
X143241637Y-163348196D01*
X143268641Y-163403368D01*
X143299621Y-163448424D01*
X143336095Y-163473010D01*
X143394980Y-163483266D01*
X143493191Y-163485333D01*
X143494419Y-163485333D01*
X143604113Y-163480933D01*
X143674827Y-163465000D01*
X143723533Y-163433438D01*
X143728223Y-163428889D01*
X143773126Y-163349299D01*
X143781634Y-163251319D01*
X143758241Y-163152331D01*
X143707443Y-163069720D01*
X143633737Y-163020868D01*
X143621876Y-163017718D01*
X143552164Y-163001427D01*
X143510296Y-162990278D01*
X143510296Y-162760578D01*
X143612741Y-162765332D01*
X143772870Y-162819049D01*
X143899979Y-162915129D01*
X143989702Y-163050975D01*
X144010810Y-163105440D01*
X144031574Y-163226529D01*
X144025776Y-163359365D01*
X143997882Y-163464167D01*
X143992186Y-163488890D01*
X144008642Y-163503716D01*
X144057355Y-163511161D01*
X144148427Y-163513741D01*
X144197925Y-163513972D01*
X144368191Y-163523481D01*
X144486301Y-163551551D01*
X144553548Y-163598607D01*
X144569914Y-163635565D01*
X144574778Y-163673123D01*
X144569381Y-163702584D01*
X144569381Y-163702584D01*
G37*
X144569381Y-163702584D02*
X144547942Y-163724783D01*
X144504680Y-163740557D01*
X144433813Y-163750744D01*
X144329560Y-163756180D01*
X144186140Y-163757701D01*
X143997770Y-163756145D01*
X143762586Y-163752417D01*
X143519321Y-163747451D01*
X143327980Y-163741779D01*
X143184044Y-163735119D01*
X143082994Y-163727188D01*
X143020312Y-163717704D01*
X142991478Y-163706383D01*
X142989497Y-163704071D01*
X142967678Y-163630673D01*
X142986230Y-163563120D01*
X142995494Y-163552018D01*
X143010329Y-163503341D01*
X142995494Y-163445758D01*
X142969142Y-163312308D01*
X142977377Y-163161593D01*
X143018703Y-163019752D01*
X143019998Y-163016875D01*
X143103566Y-162889370D01*
X143220586Y-162805103D01*
X143374799Y-162761663D01*
X143423962Y-162756573D01*
X143510296Y-162760578D01*
X143510296Y-162990278D01*
X143439940Y-162992861D01*
X143357709Y-163027258D01*
X143287386Y-163081533D01*
X143263019Y-163114382D01*
X143224537Y-163232535D01*
X143241637Y-163348196D01*
X143268641Y-163403368D01*
X143299621Y-163448424D01*
X143336095Y-163473010D01*
X143394980Y-163483266D01*
X143493191Y-163485333D01*
X143494419Y-163485333D01*
X143604113Y-163480933D01*
X143674827Y-163465000D01*
X143723533Y-163433438D01*
X143728223Y-163428889D01*
X143773126Y-163349299D01*
X143781634Y-163251319D01*
X143758241Y-163152331D01*
X143707443Y-163069720D01*
X143633737Y-163020868D01*
X143621876Y-163017718D01*
X143552164Y-163001427D01*
X143510296Y-162990278D01*
X143510296Y-162760578D01*
X143612741Y-162765332D01*
X143772870Y-162819049D01*
X143899979Y-162915129D01*
X143989702Y-163050975D01*
X144010810Y-163105440D01*
X144031574Y-163226529D01*
X144025776Y-163359365D01*
X143997882Y-163464167D01*
X143992186Y-163488890D01*
X144008642Y-163503716D01*
X144057355Y-163511161D01*
X144148427Y-163513741D01*
X144197925Y-163513972D01*
X144368191Y-163523481D01*
X144486301Y-163551551D01*
X144553548Y-163598607D01*
X144569914Y-163635565D01*
X144574778Y-163673123D01*
X144569381Y-163702584D01*
G36*
X132171302Y-146103972D02*
X132182924Y-146107231D01*
X132296687Y-146145591D01*
X132368011Y-146189006D01*
X132403960Y-146249755D01*
X132411598Y-146340117D01*
X132397988Y-146472371D01*
X132397008Y-146479372D01*
X132377200Y-146745241D01*
X132398480Y-146987345D01*
X132458162Y-147210671D01*
X132491373Y-147312234D01*
X132503832Y-147376168D01*
X132497262Y-147416622D01*
X132485459Y-147434842D01*
X132443124Y-147471484D01*
X132399689Y-147468331D01*
X132342230Y-147422382D01*
X132316350Y-147395564D01*
X132238720Y-147312462D01*
X132060550Y-147384428D01*
X131958993Y-147422787D01*
X131884737Y-147440288D01*
X131813877Y-147439823D01*
X131725771Y-147424942D01*
X131574701Y-147375146D01*
X131461824Y-147291853D01*
X131384618Y-147171178D01*
X131340560Y-147009234D01*
X131327111Y-146810656D01*
X131329491Y-146760413D01*
X131556755Y-146760413D01*
X131558301Y-146890233D01*
X131584283Y-147013471D01*
X131631444Y-147113241D01*
X131684300Y-147166111D01*
X131757723Y-147187410D01*
X131861834Y-147190514D01*
X131974642Y-147177504D01*
X132074157Y-147150462D01*
X132123854Y-147124505D01*
X132176722Y-147070726D01*
X132184347Y-147012759D01*
X132182308Y-147003140D01*
X132175133Y-146947209D01*
X132168882Y-146850641D01*
X132164422Y-146729244D01*
X132162959Y-146650363D01*
X132158950Y-146528107D01*
X132150773Y-146427476D01*
X132139764Y-146361501D01*
X132131444Y-146343154D01*
X132070574Y-146324636D01*
X131981723Y-146324833D01*
X131889592Y-146342198D01*
X131840765Y-146361369D01*
X131738450Y-146434321D01*
X131646281Y-146533218D01*
X131584971Y-146635608D01*
X131582906Y-146640893D01*
X131556755Y-146760413D01*
X131329491Y-146760413D01*
X131333398Y-146677947D01*
X131356351Y-146572065D01*
X131400701Y-146467183D01*
X131508032Y-146308877D01*
X131648215Y-146189051D01*
X131811792Y-146112056D01*
X131989307Y-146082246D01*
X132171302Y-146103972D01*
X132171302Y-146103972D01*
G37*
X132171302Y-146103972D02*
X132182924Y-146107231D01*
X132296687Y-146145591D01*
X132368011Y-146189006D01*
X132403960Y-146249755D01*
X132411598Y-146340117D01*
X132397988Y-146472371D01*
X132397008Y-146479372D01*
X132377200Y-146745241D01*
X132398480Y-146987345D01*
X132458162Y-147210671D01*
X132491373Y-147312234D01*
X132503832Y-147376168D01*
X132497262Y-147416622D01*
X132485459Y-147434842D01*
X132443124Y-147471484D01*
X132399689Y-147468331D01*
X132342230Y-147422382D01*
X132316350Y-147395564D01*
X132238720Y-147312462D01*
X132060550Y-147384428D01*
X131958993Y-147422787D01*
X131884737Y-147440288D01*
X131813877Y-147439823D01*
X131725771Y-147424942D01*
X131574701Y-147375146D01*
X131461824Y-147291853D01*
X131384618Y-147171178D01*
X131340560Y-147009234D01*
X131327111Y-146810656D01*
X131329491Y-146760413D01*
X131556755Y-146760413D01*
X131558301Y-146890233D01*
X131584283Y-147013471D01*
X131631444Y-147113241D01*
X131684300Y-147166111D01*
X131757723Y-147187410D01*
X131861834Y-147190514D01*
X131974642Y-147177504D01*
X132074157Y-147150462D01*
X132123854Y-147124505D01*
X132176722Y-147070726D01*
X132184347Y-147012759D01*
X132182308Y-147003140D01*
X132175133Y-146947209D01*
X132168882Y-146850641D01*
X132164422Y-146729244D01*
X132162959Y-146650363D01*
X132158950Y-146528107D01*
X132150773Y-146427476D01*
X132139764Y-146361501D01*
X132131444Y-146343154D01*
X132070574Y-146324636D01*
X131981723Y-146324833D01*
X131889592Y-146342198D01*
X131840765Y-146361369D01*
X131738450Y-146434321D01*
X131646281Y-146533218D01*
X131584971Y-146635608D01*
X131582906Y-146640893D01*
X131556755Y-146760413D01*
X131329491Y-146760413D01*
X131333398Y-146677947D01*
X131356351Y-146572065D01*
X131400701Y-146467183D01*
X131508032Y-146308877D01*
X131648215Y-146189051D01*
X131811792Y-146112056D01*
X131989307Y-146082246D01*
X132171302Y-146103972D01*
G36*
X121797594Y-145475986D02*
X121960078Y-145567702D01*
X122025431Y-145623980D01*
X122135256Y-145754594D01*
X122192617Y-145889814D01*
X122201068Y-146041161D01*
X122184925Y-146141026D01*
X122120235Y-146307871D01*
X122010904Y-146446345D01*
X121863574Y-146551658D01*
X121684886Y-146619020D01*
X121488158Y-146643565D01*
X121315317Y-146646111D01*
X121297658Y-146854980D01*
X121288461Y-146987265D01*
X121282073Y-147124023D01*
X121280000Y-147223280D01*
X121269202Y-147349939D01*
X121236533Y-147425343D01*
X121181578Y-147450444D01*
X121181222Y-147450444D01*
X121135670Y-147432344D01*
X121116311Y-147416578D01*
X121098788Y-147368126D01*
X121087432Y-147264632D01*
X121082345Y-147107171D01*
X121082061Y-147056744D01*
X121083522Y-146907810D01*
X121087892Y-146734498D01*
X121094679Y-146545351D01*
X121103391Y-146348912D01*
X121107671Y-146266557D01*
X121326327Y-146266557D01*
X121327114Y-146347737D01*
X121329949Y-146384662D01*
X121330106Y-146385055D01*
X121366328Y-146403506D01*
X121440577Y-146408423D01*
X121536477Y-146401317D01*
X121637653Y-146383703D01*
X121727731Y-146357093D01*
X121753625Y-146345925D01*
X121878075Y-146259257D01*
X121956734Y-146144700D01*
X121985402Y-146008472D01*
X121985450Y-146002773D01*
X121959399Y-145889977D01*
X121885799Y-145795816D01*
X121771832Y-145725126D01*
X121624680Y-145682745D01*
X121494936Y-145672444D01*
X121341171Y-145672444D01*
X121330804Y-146018167D01*
X121327564Y-146152806D01*
X121326327Y-146266557D01*
X121107671Y-146266557D01*
X121113537Y-146153723D01*
X121124623Y-145968326D01*
X121136158Y-145801265D01*
X121147650Y-145661082D01*
X121158607Y-145556319D01*
X121168537Y-145495520D01*
X121172607Y-145484690D01*
X121211709Y-145465676D01*
X121290199Y-145447017D01*
X121391138Y-145432731D01*
X121391862Y-145432658D01*
X121609813Y-145431462D01*
X121797594Y-145475986D01*
X121797594Y-145475986D01*
G37*
X121797594Y-145475986D02*
X121960078Y-145567702D01*
X122025431Y-145623980D01*
X122135256Y-145754594D01*
X122192617Y-145889814D01*
X122201068Y-146041161D01*
X122184925Y-146141026D01*
X122120235Y-146307871D01*
X122010904Y-146446345D01*
X121863574Y-146551658D01*
X121684886Y-146619020D01*
X121488158Y-146643565D01*
X121315317Y-146646111D01*
X121297658Y-146854980D01*
X121288461Y-146987265D01*
X121282073Y-147124023D01*
X121280000Y-147223280D01*
X121269202Y-147349939D01*
X121236533Y-147425343D01*
X121181578Y-147450444D01*
X121181222Y-147450444D01*
X121135670Y-147432344D01*
X121116311Y-147416578D01*
X121098788Y-147368126D01*
X121087432Y-147264632D01*
X121082345Y-147107171D01*
X121082061Y-147056744D01*
X121083522Y-146907810D01*
X121087892Y-146734498D01*
X121094679Y-146545351D01*
X121103391Y-146348912D01*
X121107671Y-146266557D01*
X121326327Y-146266557D01*
X121327114Y-146347737D01*
X121329949Y-146384662D01*
X121330106Y-146385055D01*
X121366328Y-146403506D01*
X121440577Y-146408423D01*
X121536477Y-146401317D01*
X121637653Y-146383703D01*
X121727731Y-146357093D01*
X121753625Y-146345925D01*
X121878075Y-146259257D01*
X121956734Y-146144700D01*
X121985402Y-146008472D01*
X121985450Y-146002773D01*
X121959399Y-145889977D01*
X121885799Y-145795816D01*
X121771832Y-145725126D01*
X121624680Y-145682745D01*
X121494936Y-145672444D01*
X121341171Y-145672444D01*
X121330804Y-146018167D01*
X121327564Y-146152806D01*
X121326327Y-146266557D01*
X121107671Y-146266557D01*
X121113537Y-146153723D01*
X121124623Y-145968326D01*
X121136158Y-145801265D01*
X121147650Y-145661082D01*
X121158607Y-145556319D01*
X121168537Y-145495520D01*
X121172607Y-145484690D01*
X121211709Y-145465676D01*
X121290199Y-145447017D01*
X121391138Y-145432731D01*
X121391862Y-145432658D01*
X121609813Y-145431462D01*
X121797594Y-145475986D01*
G36*
X123311675Y-146053341D02*
X123373946Y-146096960D01*
X123418612Y-146173977D01*
X123445237Y-146271173D01*
X123453389Y-146375326D01*
X123442633Y-146473215D01*
X123412535Y-146551621D01*
X123362663Y-146597322D01*
X123329739Y-146603778D01*
X123270902Y-146578431D01*
X123236647Y-146503232D01*
X123227333Y-146400578D01*
X123224416Y-146318515D01*
X123211293Y-146278364D01*
X123181404Y-146265711D01*
X123165688Y-146265111D01*
X123068055Y-146285855D01*
X122956471Y-146340301D01*
X122850548Y-146416766D01*
X122773241Y-146498868D01*
X122740389Y-146546046D01*
X122717724Y-146588725D01*
X122703355Y-146638381D01*
X122695393Y-146706490D01*
X122691947Y-146804529D01*
X122691127Y-146943973D01*
X122691111Y-146997479D01*
X122689095Y-147175912D01*
X122681505Y-147304184D01*
X122666030Y-147388481D01*
X122640356Y-147434993D01*
X122602172Y-147449907D01*
X122549165Y-147439412D01*
X122528833Y-147431753D01*
X122516784Y-147412766D01*
X122507580Y-147363244D01*
X122500937Y-147277925D01*
X122496575Y-147151550D01*
X122494210Y-146978858D01*
X122493555Y-146774215D01*
X122494099Y-146561352D01*
X122496007Y-146398197D01*
X122499697Y-146278022D01*
X122505584Y-146194097D01*
X122514086Y-146139695D01*
X122525619Y-146108087D01*
X122535529Y-146096076D01*
X122596970Y-146075073D01*
X122654033Y-146099244D01*
X122677640Y-146137471D01*
X122698832Y-146204936D01*
X122704963Y-146224411D01*
X122720797Y-146247625D01*
X122753304Y-146239483D01*
X122810796Y-146200700D01*
X122928284Y-146130609D01*
X123058950Y-146078351D01*
X123185186Y-146049104D01*
X123289385Y-146048051D01*
X123311675Y-146053341D01*
X123311675Y-146053341D01*
G37*
X123311675Y-146053341D02*
X123373946Y-146096960D01*
X123418612Y-146173977D01*
X123445237Y-146271173D01*
X123453389Y-146375326D01*
X123442633Y-146473215D01*
X123412535Y-146551621D01*
X123362663Y-146597322D01*
X123329739Y-146603778D01*
X123270902Y-146578431D01*
X123236647Y-146503232D01*
X123227333Y-146400578D01*
X123224416Y-146318515D01*
X123211293Y-146278364D01*
X123181404Y-146265711D01*
X123165688Y-146265111D01*
X123068055Y-146285855D01*
X122956471Y-146340301D01*
X122850548Y-146416766D01*
X122773241Y-146498868D01*
X122740389Y-146546046D01*
X122717724Y-146588725D01*
X122703355Y-146638381D01*
X122695393Y-146706490D01*
X122691947Y-146804529D01*
X122691127Y-146943973D01*
X122691111Y-146997479D01*
X122689095Y-147175912D01*
X122681505Y-147304184D01*
X122666030Y-147388481D01*
X122640356Y-147434993D01*
X122602172Y-147449907D01*
X122549165Y-147439412D01*
X122528833Y-147431753D01*
X122516784Y-147412766D01*
X122507580Y-147363244D01*
X122500937Y-147277925D01*
X122496575Y-147151550D01*
X122494210Y-146978858D01*
X122493555Y-146774215D01*
X122494099Y-146561352D01*
X122496007Y-146398197D01*
X122499697Y-146278022D01*
X122505584Y-146194097D01*
X122514086Y-146139695D01*
X122525619Y-146108087D01*
X122535529Y-146096076D01*
X122596970Y-146075073D01*
X122654033Y-146099244D01*
X122677640Y-146137471D01*
X122698832Y-146204936D01*
X122704963Y-146224411D01*
X122720797Y-146247625D01*
X122753304Y-146239483D01*
X122810796Y-146200700D01*
X122928284Y-146130609D01*
X123058950Y-146078351D01*
X123185186Y-146049104D01*
X123289385Y-146048051D01*
X123311675Y-146053341D01*
G36*
X124425422Y-146103679D02*
X124547495Y-146168606D01*
X124644507Y-146282306D01*
X124671981Y-146330988D01*
X124719244Y-146466007D01*
X124744634Y-146631874D01*
X124746978Y-146806922D01*
X124725105Y-146969489D01*
X124709546Y-147025467D01*
X124631520Y-147187900D01*
X124521682Y-147314428D01*
X124388209Y-147400332D01*
X124239283Y-147440891D01*
X124083083Y-147431386D01*
X124031666Y-147416574D01*
X123914516Y-147350999D01*
X123806451Y-147246740D01*
X123723275Y-147121155D01*
X123692144Y-147043648D01*
X123655270Y-146841794D01*
X123656516Y-146812303D01*
X123887697Y-146812303D01*
X123904178Y-146942897D01*
X123949893Y-147053945D01*
X124020396Y-147138356D01*
X124111238Y-147189039D01*
X124217973Y-147198904D01*
X124336151Y-147160862D01*
X124355098Y-147150286D01*
X124443769Y-147077521D01*
X124499073Y-146978719D01*
X124525297Y-146843880D01*
X124528870Y-146744921D01*
X124515039Y-146568979D01*
X124474082Y-146441356D01*
X124404904Y-146360286D01*
X124306410Y-146324003D01*
X124266188Y-146321555D01*
X124135048Y-146345418D01*
X124030594Y-146418154D01*
X123960233Y-146520832D01*
X123904900Y-146669251D01*
X123887697Y-146812303D01*
X123656516Y-146812303D01*
X123663375Y-146650043D01*
X123712276Y-146475319D01*
X123797790Y-146324548D01*
X123915733Y-146204655D01*
X124061922Y-146122564D01*
X124232173Y-146085202D01*
X124272062Y-146083674D01*
X124425422Y-146103679D01*
X124425422Y-146103679D01*
G37*
X124425422Y-146103679D02*
X124547495Y-146168606D01*
X124644507Y-146282306D01*
X124671981Y-146330988D01*
X124719244Y-146466007D01*
X124744634Y-146631874D01*
X124746978Y-146806922D01*
X124725105Y-146969489D01*
X124709546Y-147025467D01*
X124631520Y-147187900D01*
X124521682Y-147314428D01*
X124388209Y-147400332D01*
X124239283Y-147440891D01*
X124083083Y-147431386D01*
X124031666Y-147416574D01*
X123914516Y-147350999D01*
X123806451Y-147246740D01*
X123723275Y-147121155D01*
X123692144Y-147043648D01*
X123655270Y-146841794D01*
X123656516Y-146812303D01*
X123887697Y-146812303D01*
X123904178Y-146942897D01*
X123949893Y-147053945D01*
X124020396Y-147138356D01*
X124111238Y-147189039D01*
X124217973Y-147198904D01*
X124336151Y-147160862D01*
X124355098Y-147150286D01*
X124443769Y-147077521D01*
X124499073Y-146978719D01*
X124525297Y-146843880D01*
X124528870Y-146744921D01*
X124515039Y-146568979D01*
X124474082Y-146441356D01*
X124404904Y-146360286D01*
X124306410Y-146324003D01*
X124266188Y-146321555D01*
X124135048Y-146345418D01*
X124030594Y-146418154D01*
X123960233Y-146520832D01*
X123904900Y-146669251D01*
X123887697Y-146812303D01*
X123656516Y-146812303D01*
X123663375Y-146650043D01*
X123712276Y-146475319D01*
X123797790Y-146324548D01*
X123915733Y-146204655D01*
X124061922Y-146122564D01*
X124232173Y-146085202D01*
X124272062Y-146083674D01*
X124425422Y-146103679D01*
G36*
X125518980Y-145639613D02*
X125539903Y-145656838D01*
X125573700Y-145699232D01*
X125591570Y-145759520D01*
X125597772Y-145854597D01*
X125598000Y-145887249D01*
X125598000Y-146065083D01*
X126007222Y-146081667D01*
X126007222Y-146180444D01*
X126004786Y-146239001D01*
X125987781Y-146269042D01*
X125941662Y-146281509D01*
X125866111Y-146286597D01*
X125777728Y-146290219D01*
X125712505Y-146295549D01*
X125667093Y-146310128D01*
X125638141Y-146341499D01*
X125622298Y-146397205D01*
X125616214Y-146484789D01*
X125616539Y-146611792D01*
X125619921Y-146785757D01*
X125620872Y-146838675D01*
X125623447Y-147025742D01*
X125623603Y-147164487D01*
X125620806Y-147262997D01*
X125614523Y-147329364D01*
X125604221Y-147371676D01*
X125589366Y-147398023D01*
X125583578Y-147404389D01*
X125532177Y-147444499D01*
X125487382Y-147440006D01*
X125451188Y-147415167D01*
X125434646Y-147393423D01*
X125421877Y-147352633D01*
X125412078Y-147285201D01*
X125404447Y-147183532D01*
X125398181Y-147040031D01*
X125392910Y-146863690D01*
X125387669Y-146698527D01*
X125381351Y-146553293D01*
X125374497Y-146437227D01*
X125367649Y-146359570D01*
X125361638Y-146329787D01*
X125325769Y-146317883D01*
X125251987Y-146305867D01*
X125186461Y-146299024D01*
X125091132Y-146287174D01*
X125036013Y-146267107D01*
X125004888Y-146231984D01*
X124998900Y-146219929D01*
X124983614Y-146148793D01*
X125015182Y-146100844D01*
X125095889Y-146074395D01*
X125205108Y-146067555D01*
X125369749Y-146067555D01*
X125378041Y-145865901D01*
X125391546Y-145729344D01*
X125419064Y-145646723D01*
X125461305Y-145617119D01*
X125518980Y-145639613D01*
X125518980Y-145639613D01*
G37*
X125518980Y-145639613D02*
X125539903Y-145656838D01*
X125573700Y-145699232D01*
X125591570Y-145759520D01*
X125597772Y-145854597D01*
X125598000Y-145887249D01*
X125598000Y-146065083D01*
X126007222Y-146081667D01*
X126007222Y-146180444D01*
X126004786Y-146239001D01*
X125987781Y-146269042D01*
X125941662Y-146281509D01*
X125866111Y-146286597D01*
X125777728Y-146290219D01*
X125712505Y-146295549D01*
X125667093Y-146310128D01*
X125638141Y-146341499D01*
X125622298Y-146397205D01*
X125616214Y-146484789D01*
X125616539Y-146611792D01*
X125619921Y-146785757D01*
X125620872Y-146838675D01*
X125623447Y-147025742D01*
X125623603Y-147164487D01*
X125620806Y-147262997D01*
X125614523Y-147329364D01*
X125604221Y-147371676D01*
X125589366Y-147398023D01*
X125583578Y-147404389D01*
X125532177Y-147444499D01*
X125487382Y-147440006D01*
X125451188Y-147415167D01*
X125434646Y-147393423D01*
X125421877Y-147352633D01*
X125412078Y-147285201D01*
X125404447Y-147183532D01*
X125398181Y-147040031D01*
X125392910Y-146863690D01*
X125387669Y-146698527D01*
X125381351Y-146553293D01*
X125374497Y-146437227D01*
X125367649Y-146359570D01*
X125361638Y-146329787D01*
X125325769Y-146317883D01*
X125251987Y-146305867D01*
X125186461Y-146299024D01*
X125091132Y-146287174D01*
X125036013Y-146267107D01*
X125004888Y-146231984D01*
X124998900Y-146219929D01*
X124983614Y-146148793D01*
X125015182Y-146100844D01*
X125095889Y-146074395D01*
X125205108Y-146067555D01*
X125369749Y-146067555D01*
X125378041Y-145865901D01*
X125391546Y-145729344D01*
X125419064Y-145646723D01*
X125461305Y-145617119D01*
X125518980Y-145639613D01*
G36*
X126993645Y-146103679D02*
X127115717Y-146168606D01*
X127212729Y-146282306D01*
X127240203Y-146330988D01*
X127287466Y-146466007D01*
X127312856Y-146631874D01*
X127315200Y-146806922D01*
X127293327Y-146969489D01*
X127277768Y-147025467D01*
X127199743Y-147187900D01*
X127089904Y-147314428D01*
X126956432Y-147400332D01*
X126807506Y-147440891D01*
X126651306Y-147431386D01*
X126599889Y-147416574D01*
X126482738Y-147350999D01*
X126374673Y-147246740D01*
X126291497Y-147121155D01*
X126260366Y-147043648D01*
X126223492Y-146841794D01*
X126224738Y-146812303D01*
X126455920Y-146812303D01*
X126472400Y-146942897D01*
X126518115Y-147053945D01*
X126588618Y-147138356D01*
X126679461Y-147189039D01*
X126786195Y-147198904D01*
X126904373Y-147160862D01*
X126923320Y-147150286D01*
X127011991Y-147077521D01*
X127067296Y-146978719D01*
X127093519Y-146843880D01*
X127097093Y-146744921D01*
X127083261Y-146568979D01*
X127042304Y-146441356D01*
X126973126Y-146360286D01*
X126874632Y-146324003D01*
X126834410Y-146321555D01*
X126703270Y-146345418D01*
X126598817Y-146418154D01*
X126528455Y-146520832D01*
X126473122Y-146669251D01*
X126455920Y-146812303D01*
X126224738Y-146812303D01*
X126231597Y-146650043D01*
X126280498Y-146475319D01*
X126366012Y-146324548D01*
X126483955Y-146204655D01*
X126630144Y-146122564D01*
X126800395Y-146085202D01*
X126840284Y-146083674D01*
X126993645Y-146103679D01*
X126993645Y-146103679D01*
G37*
X126993645Y-146103679D02*
X127115717Y-146168606D01*
X127212729Y-146282306D01*
X127240203Y-146330988D01*
X127287466Y-146466007D01*
X127312856Y-146631874D01*
X127315200Y-146806922D01*
X127293327Y-146969489D01*
X127277768Y-147025467D01*
X127199743Y-147187900D01*
X127089904Y-147314428D01*
X126956432Y-147400332D01*
X126807506Y-147440891D01*
X126651306Y-147431386D01*
X126599889Y-147416574D01*
X126482738Y-147350999D01*
X126374673Y-147246740D01*
X126291497Y-147121155D01*
X126260366Y-147043648D01*
X126223492Y-146841794D01*
X126224738Y-146812303D01*
X126455920Y-146812303D01*
X126472400Y-146942897D01*
X126518115Y-147053945D01*
X126588618Y-147138356D01*
X126679461Y-147189039D01*
X126786195Y-147198904D01*
X126904373Y-147160862D01*
X126923320Y-147150286D01*
X127011991Y-147077521D01*
X127067296Y-146978719D01*
X127093519Y-146843880D01*
X127097093Y-146744921D01*
X127083261Y-146568979D01*
X127042304Y-146441356D01*
X126973126Y-146360286D01*
X126874632Y-146324003D01*
X126834410Y-146321555D01*
X126703270Y-146345418D01*
X126598817Y-146418154D01*
X126528455Y-146520832D01*
X126473122Y-146669251D01*
X126455920Y-146812303D01*
X126224738Y-146812303D01*
X126231597Y-146650043D01*
X126280498Y-146475319D01*
X126366012Y-146324548D01*
X126483955Y-146204655D01*
X126630144Y-146122564D01*
X126800395Y-146085202D01*
X126840284Y-146083674D01*
X126993645Y-146103679D01*
G36*
X129122818Y-145447881D02*
X129268858Y-145487757D01*
X129397458Y-145563846D01*
X129491864Y-145647762D01*
X129571596Y-145741958D01*
X129615690Y-145838415D01*
X129632664Y-145959110D01*
X129633777Y-146013855D01*
X129609494Y-146194189D01*
X129540006Y-146353873D01*
X129473881Y-146439305D01*
X129401645Y-146514722D01*
X129510655Y-146570614D01*
X129643254Y-146655549D01*
X129724363Y-146750585D01*
X129758815Y-146862105D01*
X129760777Y-146901025D01*
X129754471Y-146981679D01*
X129728390Y-147045389D01*
X129671789Y-147115120D01*
X129649967Y-147137872D01*
X129524387Y-147244134D01*
X129376410Y-147324638D01*
X129196843Y-147382780D01*
X128976492Y-147421958D01*
X128843555Y-147435894D01*
X128726614Y-147443341D01*
X128649413Y-147440137D01*
X128595958Y-147424537D01*
X128564289Y-147405442D01*
X128496689Y-147356834D01*
X128501527Y-147204631D01*
X128730666Y-147204631D01*
X128921166Y-147187928D01*
X129043921Y-147171895D01*
X129165688Y-147147573D01*
X129240323Y-147126577D01*
X129341880Y-147079711D01*
X129437678Y-147017480D01*
X129460284Y-146998535D01*
X129516785Y-146939858D01*
X129533821Y-146896998D01*
X129523254Y-146862197D01*
X129464237Y-146802384D01*
X129360895Y-146748432D01*
X129225324Y-146704589D01*
X129069619Y-146675102D01*
X128963500Y-146665653D01*
X128730666Y-146654430D01*
X128730666Y-147204631D01*
X128501527Y-147204631D01*
X128514714Y-146789806D01*
X128521605Y-146585116D01*
X128529493Y-146370413D01*
X128537211Y-146175333D01*
X128772158Y-146175333D01*
X128772270Y-146284240D01*
X128779046Y-146350762D01*
X128792803Y-146381764D01*
X128795253Y-146383629D01*
X128865450Y-146403467D01*
X128966496Y-146403674D01*
X129077069Y-146386167D01*
X129175849Y-146352864D01*
X129184453Y-146348639D01*
X129300141Y-146262938D01*
X129377248Y-146149322D01*
X129407165Y-146020836D01*
X129407267Y-146011111D01*
X129380444Y-145894775D01*
X129306970Y-145796663D01*
X129195378Y-145723146D01*
X129054200Y-145680593D01*
X128953697Y-145672550D01*
X128795728Y-145672444D01*
X128778395Y-146017173D01*
X128772158Y-146175333D01*
X128537211Y-146175333D01*
X128537697Y-146163063D01*
X128545534Y-145980434D01*
X128551241Y-145860647D01*
X128559224Y-145712064D01*
X128566815Y-145610036D01*
X128576323Y-145544740D01*
X128590057Y-145506350D01*
X128610325Y-145485044D01*
X128639435Y-145470995D01*
X128643149Y-145469522D01*
X128706327Y-145455250D01*
X128806136Y-145444062D01*
X128922771Y-145438065D01*
X128942333Y-145437719D01*
X129122818Y-145447881D01*
X129122818Y-145447881D01*
G37*
X129122818Y-145447881D02*
X129268858Y-145487757D01*
X129397458Y-145563846D01*
X129491864Y-145647762D01*
X129571596Y-145741958D01*
X129615690Y-145838415D01*
X129632664Y-145959110D01*
X129633777Y-146013855D01*
X129609494Y-146194189D01*
X129540006Y-146353873D01*
X129473881Y-146439305D01*
X129401645Y-146514722D01*
X129510655Y-146570614D01*
X129643254Y-146655549D01*
X129724363Y-146750585D01*
X129758815Y-146862105D01*
X129760777Y-146901025D01*
X129754471Y-146981679D01*
X129728390Y-147045389D01*
X129671789Y-147115120D01*
X129649967Y-147137872D01*
X129524387Y-147244134D01*
X129376410Y-147324638D01*
X129196843Y-147382780D01*
X128976492Y-147421958D01*
X128843555Y-147435894D01*
X128726614Y-147443341D01*
X128649413Y-147440137D01*
X128595958Y-147424537D01*
X128564289Y-147405442D01*
X128496689Y-147356834D01*
X128501527Y-147204631D01*
X128730666Y-147204631D01*
X128921166Y-147187928D01*
X129043921Y-147171895D01*
X129165688Y-147147573D01*
X129240323Y-147126577D01*
X129341880Y-147079711D01*
X129437678Y-147017480D01*
X129460284Y-146998535D01*
X129516785Y-146939858D01*
X129533821Y-146896998D01*
X129523254Y-146862197D01*
X129464237Y-146802384D01*
X129360895Y-146748432D01*
X129225324Y-146704589D01*
X129069619Y-146675102D01*
X128963500Y-146665653D01*
X128730666Y-146654430D01*
X128730666Y-147204631D01*
X128501527Y-147204631D01*
X128514714Y-146789806D01*
X128521605Y-146585116D01*
X128529493Y-146370413D01*
X128537211Y-146175333D01*
X128772158Y-146175333D01*
X128772270Y-146284240D01*
X128779046Y-146350762D01*
X128792803Y-146381764D01*
X128795253Y-146383629D01*
X128865450Y-146403467D01*
X128966496Y-146403674D01*
X129077069Y-146386167D01*
X129175849Y-146352864D01*
X129184453Y-146348639D01*
X129300141Y-146262938D01*
X129377248Y-146149322D01*
X129407165Y-146020836D01*
X129407267Y-146011111D01*
X129380444Y-145894775D01*
X129306970Y-145796663D01*
X129195378Y-145723146D01*
X129054200Y-145680593D01*
X128953697Y-145672550D01*
X128795728Y-145672444D01*
X128778395Y-146017173D01*
X128772158Y-146175333D01*
X128537211Y-146175333D01*
X128537697Y-146163063D01*
X128545534Y-145980434D01*
X128551241Y-145860647D01*
X128559224Y-145712064D01*
X128566815Y-145610036D01*
X128576323Y-145544740D01*
X128590057Y-145506350D01*
X128610325Y-145485044D01*
X128639435Y-145470995D01*
X128643149Y-145469522D01*
X128706327Y-145455250D01*
X128806136Y-145444062D01*
X128922771Y-145438065D01*
X128942333Y-145437719D01*
X129122818Y-145447881D01*
G36*
X130775422Y-146103679D02*
X130897495Y-146168606D01*
X130994507Y-146282306D01*
X131021981Y-146330988D01*
X131069244Y-146466007D01*
X131094634Y-146631874D01*
X131096978Y-146806922D01*
X131075105Y-146969489D01*
X131059546Y-147025467D01*
X130981520Y-147187900D01*
X130871682Y-147314428D01*
X130738209Y-147400332D01*
X130589283Y-147440891D01*
X130433083Y-147431386D01*
X130381666Y-147416574D01*
X130264516Y-147350999D01*
X130156451Y-147246740D01*
X130073275Y-147121155D01*
X130042144Y-147043648D01*
X130005270Y-146841794D01*
X130006516Y-146812303D01*
X130237697Y-146812303D01*
X130254178Y-146942897D01*
X130299893Y-147053945D01*
X130370396Y-147138356D01*
X130461238Y-147189039D01*
X130567973Y-147198904D01*
X130686151Y-147160862D01*
X130705098Y-147150286D01*
X130793769Y-147077521D01*
X130849073Y-146978719D01*
X130875297Y-146843880D01*
X130878870Y-146744921D01*
X130865039Y-146568979D01*
X130824082Y-146441356D01*
X130754904Y-146360286D01*
X130656410Y-146324003D01*
X130616188Y-146321555D01*
X130485048Y-146345418D01*
X130380594Y-146418154D01*
X130310233Y-146520832D01*
X130254900Y-146669251D01*
X130237697Y-146812303D01*
X130006516Y-146812303D01*
X130013375Y-146650043D01*
X130062276Y-146475319D01*
X130147790Y-146324548D01*
X130265733Y-146204655D01*
X130411922Y-146122564D01*
X130582173Y-146085202D01*
X130622062Y-146083674D01*
X130775422Y-146103679D01*
X130775422Y-146103679D01*
G37*
X130775422Y-146103679D02*
X130897495Y-146168606D01*
X130994507Y-146282306D01*
X131021981Y-146330988D01*
X131069244Y-146466007D01*
X131094634Y-146631874D01*
X131096978Y-146806922D01*
X131075105Y-146969489D01*
X131059546Y-147025467D01*
X130981520Y-147187900D01*
X130871682Y-147314428D01*
X130738209Y-147400332D01*
X130589283Y-147440891D01*
X130433083Y-147431386D01*
X130381666Y-147416574D01*
X130264516Y-147350999D01*
X130156451Y-147246740D01*
X130073275Y-147121155D01*
X130042144Y-147043648D01*
X130005270Y-146841794D01*
X130006516Y-146812303D01*
X130237697Y-146812303D01*
X130254178Y-146942897D01*
X130299893Y-147053945D01*
X130370396Y-147138356D01*
X130461238Y-147189039D01*
X130567973Y-147198904D01*
X130686151Y-147160862D01*
X130705098Y-147150286D01*
X130793769Y-147077521D01*
X130849073Y-146978719D01*
X130875297Y-146843880D01*
X130878870Y-146744921D01*
X130865039Y-146568979D01*
X130824082Y-146441356D01*
X130754904Y-146360286D01*
X130656410Y-146324003D01*
X130616188Y-146321555D01*
X130485048Y-146345418D01*
X130380594Y-146418154D01*
X130310233Y-146520832D01*
X130254900Y-146669251D01*
X130237697Y-146812303D01*
X130006516Y-146812303D01*
X130013375Y-146650043D01*
X130062276Y-146475319D01*
X130147790Y-146324548D01*
X130265733Y-146204655D01*
X130411922Y-146122564D01*
X130582173Y-146085202D01*
X130622062Y-146083674D01*
X130775422Y-146103679D01*
G36*
X133584564Y-146053341D02*
X133646835Y-146096960D01*
X133691501Y-146173977D01*
X133718126Y-146271173D01*
X133726278Y-146375326D01*
X133715522Y-146473215D01*
X133685424Y-146551621D01*
X133635551Y-146597322D01*
X133602628Y-146603778D01*
X133543791Y-146578431D01*
X133509536Y-146503232D01*
X133500222Y-146400578D01*
X133497305Y-146318515D01*
X133484182Y-146278364D01*
X133454292Y-146265711D01*
X133438577Y-146265111D01*
X133340944Y-146285855D01*
X133229360Y-146340301D01*
X133123437Y-146416766D01*
X133046130Y-146498868D01*
X133013278Y-146546046D01*
X132990612Y-146588725D01*
X132976244Y-146638381D01*
X132968282Y-146706490D01*
X132964836Y-146804529D01*
X132964016Y-146943973D01*
X132964000Y-146997479D01*
X132961984Y-147175912D01*
X132954394Y-147304184D01*
X132938919Y-147388481D01*
X132913245Y-147434993D01*
X132875061Y-147449907D01*
X132822054Y-147439412D01*
X132801722Y-147431753D01*
X132789673Y-147412766D01*
X132780469Y-147363244D01*
X132773826Y-147277925D01*
X132769464Y-147151550D01*
X132767098Y-146978858D01*
X132766444Y-146774215D01*
X132766988Y-146561352D01*
X132768896Y-146398197D01*
X132772586Y-146278022D01*
X132778473Y-146194097D01*
X132786975Y-146139695D01*
X132798508Y-146108087D01*
X132808418Y-146096076D01*
X132869859Y-146075073D01*
X132926922Y-146099244D01*
X132950529Y-146137471D01*
X132971721Y-146204936D01*
X132977852Y-146224411D01*
X132993686Y-146247625D01*
X133026193Y-146239483D01*
X133083685Y-146200700D01*
X133201173Y-146130609D01*
X133331839Y-146078351D01*
X133458075Y-146049104D01*
X133562274Y-146048051D01*
X133584564Y-146053341D01*
X133584564Y-146053341D01*
G37*
X133584564Y-146053341D02*
X133646835Y-146096960D01*
X133691501Y-146173977D01*
X133718126Y-146271173D01*
X133726278Y-146375326D01*
X133715522Y-146473215D01*
X133685424Y-146551621D01*
X133635551Y-146597322D01*
X133602628Y-146603778D01*
X133543791Y-146578431D01*
X133509536Y-146503232D01*
X133500222Y-146400578D01*
X133497305Y-146318515D01*
X133484182Y-146278364D01*
X133454292Y-146265711D01*
X133438577Y-146265111D01*
X133340944Y-146285855D01*
X133229360Y-146340301D01*
X133123437Y-146416766D01*
X133046130Y-146498868D01*
X133013278Y-146546046D01*
X132990612Y-146588725D01*
X132976244Y-146638381D01*
X132968282Y-146706490D01*
X132964836Y-146804529D01*
X132964016Y-146943973D01*
X132964000Y-146997479D01*
X132961984Y-147175912D01*
X132954394Y-147304184D01*
X132938919Y-147388481D01*
X132913245Y-147434993D01*
X132875061Y-147449907D01*
X132822054Y-147439412D01*
X132801722Y-147431753D01*
X132789673Y-147412766D01*
X132780469Y-147363244D01*
X132773826Y-147277925D01*
X132769464Y-147151550D01*
X132767098Y-146978858D01*
X132766444Y-146774215D01*
X132766988Y-146561352D01*
X132768896Y-146398197D01*
X132772586Y-146278022D01*
X132778473Y-146194097D01*
X132786975Y-146139695D01*
X132798508Y-146108087D01*
X132808418Y-146096076D01*
X132869859Y-146075073D01*
X132926922Y-146099244D01*
X132950529Y-146137471D01*
X132971721Y-146204936D01*
X132977852Y-146224411D01*
X132993686Y-146247625D01*
X133026193Y-146239483D01*
X133083685Y-146200700D01*
X133201173Y-146130609D01*
X133331839Y-146078351D01*
X133458075Y-146049104D01*
X133562274Y-146048051D01*
X133584564Y-146053341D01*
G36*
X135113261Y-145371050D02*
X135128287Y-145379311D01*
X135153720Y-145402961D01*
X135168495Y-145443566D01*
X135174747Y-145513599D01*
X135174609Y-145625534D01*
X135174153Y-145647422D01*
X135172215Y-145741597D01*
X135169559Y-145881421D01*
X135166378Y-146056106D01*
X135162868Y-146254866D01*
X135159221Y-146466913D01*
X135156464Y-146631181D01*
X135152366Y-146858355D01*
X135148179Y-147035526D01*
X135143407Y-147169132D01*
X135137551Y-147265613D01*
X135130115Y-147331408D01*
X135120601Y-147372955D01*
X135108510Y-147396695D01*
X135096487Y-147407292D01*
X135052223Y-147418202D01*
X135007493Y-147385340D01*
X134996270Y-147372224D01*
X134943632Y-147308114D01*
X134834717Y-147364884D01*
X134676186Y-147420499D01*
X134503412Y-147436664D01*
X134363410Y-147416835D01*
X134255304Y-147364940D01*
X134145704Y-147276946D01*
X134051597Y-147169783D01*
X133989971Y-147060380D01*
X133982273Y-147037025D01*
X133951550Y-146841046D01*
X133953165Y-146817190D01*
X134157560Y-146817190D01*
X134190420Y-146947526D01*
X134257598Y-147056634D01*
X134352854Y-147137879D01*
X134469947Y-147184625D01*
X134602639Y-147190234D01*
X134744690Y-147148072D01*
X134788909Y-147124699D01*
X134911333Y-147052954D01*
X134911333Y-146784177D01*
X134908358Y-146633153D01*
X134896915Y-146527094D01*
X134873228Y-146454716D01*
X134833520Y-146404733D01*
X134774017Y-146365863D01*
X134770787Y-146364181D01*
X134639724Y-146324064D01*
X134502243Y-146327902D01*
X134373443Y-146371444D01*
X134268422Y-146450436D01*
X134219749Y-146519380D01*
X134165256Y-146672263D01*
X134157560Y-146817190D01*
X133953165Y-146817190D01*
X133964628Y-146647939D01*
X134017810Y-146468096D01*
X134107401Y-146311908D01*
X134229704Y-146189765D01*
X134299135Y-146146181D01*
X134432857Y-146098028D01*
X134579112Y-146080427D01*
X134718791Y-146093406D01*
X134832783Y-146136998D01*
X134845269Y-146145307D01*
X134934428Y-146208859D01*
X134954805Y-145840429D01*
X134965291Y-145678534D01*
X134976982Y-145563295D01*
X134991501Y-145484925D01*
X135010470Y-145433639D01*
X135026155Y-145409944D01*
X135071281Y-145368459D01*
X135113261Y-145371050D01*
X135113261Y-145371050D01*
G37*
X135113261Y-145371050D02*
X135128287Y-145379311D01*
X135153720Y-145402961D01*
X135168495Y-145443566D01*
X135174747Y-145513599D01*
X135174609Y-145625534D01*
X135174153Y-145647422D01*
X135172215Y-145741597D01*
X135169559Y-145881421D01*
X135166378Y-146056106D01*
X135162868Y-146254866D01*
X135159221Y-146466913D01*
X135156464Y-146631181D01*
X135152366Y-146858355D01*
X135148179Y-147035526D01*
X135143407Y-147169132D01*
X135137551Y-147265613D01*
X135130115Y-147331408D01*
X135120601Y-147372955D01*
X135108510Y-147396695D01*
X135096487Y-147407292D01*
X135052223Y-147418202D01*
X135007493Y-147385340D01*
X134996270Y-147372224D01*
X134943632Y-147308114D01*
X134834717Y-147364884D01*
X134676186Y-147420499D01*
X134503412Y-147436664D01*
X134363410Y-147416835D01*
X134255304Y-147364940D01*
X134145704Y-147276946D01*
X134051597Y-147169783D01*
X133989971Y-147060380D01*
X133982273Y-147037025D01*
X133951550Y-146841046D01*
X133953165Y-146817190D01*
X134157560Y-146817190D01*
X134190420Y-146947526D01*
X134257598Y-147056634D01*
X134352854Y-147137879D01*
X134469947Y-147184625D01*
X134602639Y-147190234D01*
X134744690Y-147148072D01*
X134788909Y-147124699D01*
X134911333Y-147052954D01*
X134911333Y-146784177D01*
X134908358Y-146633153D01*
X134896915Y-146527094D01*
X134873228Y-146454716D01*
X134833520Y-146404733D01*
X134774017Y-146365863D01*
X134770787Y-146364181D01*
X134639724Y-146324064D01*
X134502243Y-146327902D01*
X134373443Y-146371444D01*
X134268422Y-146450436D01*
X134219749Y-146519380D01*
X134165256Y-146672263D01*
X134157560Y-146817190D01*
X133953165Y-146817190D01*
X133964628Y-146647939D01*
X134017810Y-146468096D01*
X134107401Y-146311908D01*
X134229704Y-146189765D01*
X134299135Y-146146181D01*
X134432857Y-146098028D01*
X134579112Y-146080427D01*
X134718791Y-146093406D01*
X134832783Y-146136998D01*
X134845269Y-146145307D01*
X134934428Y-146208859D01*
X134954805Y-145840429D01*
X134965291Y-145678534D01*
X134976982Y-145563295D01*
X134991501Y-145484925D01*
X135010470Y-145433639D01*
X135026155Y-145409944D01*
X135071281Y-145368459D01*
X135113261Y-145371050D01*
G36*
X125268700Y-142460582D02*
X125370719Y-142512021D01*
X125379199Y-142519357D01*
X125435454Y-142562289D01*
X125472191Y-142585420D01*
X125496283Y-142605408D01*
X125512912Y-142638296D01*
X125522257Y-142691212D01*
X125524497Y-142771283D01*
X125519811Y-142885635D01*
X125508378Y-143041395D01*
X125490376Y-143245690D01*
X125489110Y-143259444D01*
X125463559Y-143524066D01*
X125439464Y-143738644D01*
X125414940Y-143909481D01*
X125388104Y-144042878D01*
X125357070Y-144145137D01*
X125319954Y-144222561D01*
X125274872Y-144281452D01*
X125219940Y-144328110D01*
X125158184Y-144366146D01*
X125047497Y-144407966D01*
X124903242Y-144436221D01*
X124747183Y-144448497D01*
X124601083Y-144442380D01*
X124548201Y-144433803D01*
X124436081Y-144396649D01*
X124375031Y-144341613D01*
X124361646Y-144265587D01*
X124361851Y-144263749D01*
X124370333Y-144190778D01*
X124669193Y-144200948D01*
X124968052Y-144211118D01*
X125070966Y-144120759D01*
X125133908Y-144055088D01*
X125179125Y-143978368D01*
X125211511Y-143877597D01*
X125235966Y-143739773D01*
X125246562Y-143654555D01*
X125265795Y-143485222D01*
X125162132Y-143604529D01*
X125042166Y-143712146D01*
X124914515Y-143765081D01*
X124774298Y-143765029D01*
X124728850Y-143754879D01*
X124590905Y-143691542D01*
X124484668Y-143590298D01*
X124410428Y-143460129D01*
X124368474Y-143310019D01*
X124365465Y-143258330D01*
X124591361Y-143258330D01*
X124607423Y-143331788D01*
X124661997Y-143441738D01*
X124748340Y-143505956D01*
X124870685Y-143527534D01*
X124875339Y-143527555D01*
X124945960Y-143521153D01*
X125004713Y-143495095D01*
X125070608Y-143439106D01*
X125106526Y-143402589D01*
X125163884Y-143337235D01*
X125206192Y-143271392D01*
X125237884Y-143192607D01*
X125263396Y-143088429D01*
X125287160Y-142946407D01*
X125299180Y-142861642D01*
X125305428Y-142785538D01*
X125291512Y-142743951D01*
X125249719Y-142716340D01*
X125243530Y-142713475D01*
X125127514Y-142684938D01*
X124992569Y-142687186D01*
X124866182Y-142718896D01*
X124835559Y-142733145D01*
X124719817Y-142824790D01*
X124637080Y-142951940D01*
X124592533Y-143100989D01*
X124591361Y-143258330D01*
X124365465Y-143258330D01*
X124359095Y-143148951D01*
X124382580Y-142985909D01*
X124439218Y-142829877D01*
X124529298Y-142689838D01*
X124653110Y-142574775D01*
X124690104Y-142550516D01*
X124831704Y-142484974D01*
X124984879Y-142447706D01*
X125135316Y-142439359D01*
X125268700Y-142460582D01*
X125268700Y-142460582D01*
G37*
X125268700Y-142460582D02*
X125370719Y-142512021D01*
X125379199Y-142519357D01*
X125435454Y-142562289D01*
X125472191Y-142585420D01*
X125496283Y-142605408D01*
X125512912Y-142638296D01*
X125522257Y-142691212D01*
X125524497Y-142771283D01*
X125519811Y-142885635D01*
X125508378Y-143041395D01*
X125490376Y-143245690D01*
X125489110Y-143259444D01*
X125463559Y-143524066D01*
X125439464Y-143738644D01*
X125414940Y-143909481D01*
X125388104Y-144042878D01*
X125357070Y-144145137D01*
X125319954Y-144222561D01*
X125274872Y-144281452D01*
X125219940Y-144328110D01*
X125158184Y-144366146D01*
X125047497Y-144407966D01*
X124903242Y-144436221D01*
X124747183Y-144448497D01*
X124601083Y-144442380D01*
X124548201Y-144433803D01*
X124436081Y-144396649D01*
X124375031Y-144341613D01*
X124361646Y-144265587D01*
X124361851Y-144263749D01*
X124370333Y-144190778D01*
X124669193Y-144200948D01*
X124968052Y-144211118D01*
X125070966Y-144120759D01*
X125133908Y-144055088D01*
X125179125Y-143978368D01*
X125211511Y-143877597D01*
X125235966Y-143739773D01*
X125246562Y-143654555D01*
X125265795Y-143485222D01*
X125162132Y-143604529D01*
X125042166Y-143712146D01*
X124914515Y-143765081D01*
X124774298Y-143765029D01*
X124728850Y-143754879D01*
X124590905Y-143691542D01*
X124484668Y-143590298D01*
X124410428Y-143460129D01*
X124368474Y-143310019D01*
X124365465Y-143258330D01*
X124591361Y-143258330D01*
X124607423Y-143331788D01*
X124661997Y-143441738D01*
X124748340Y-143505956D01*
X124870685Y-143527534D01*
X124875339Y-143527555D01*
X124945960Y-143521153D01*
X125004713Y-143495095D01*
X125070608Y-143439106D01*
X125106526Y-143402589D01*
X125163884Y-143337235D01*
X125206192Y-143271392D01*
X125237884Y-143192607D01*
X125263396Y-143088429D01*
X125287160Y-142946407D01*
X125299180Y-142861642D01*
X125305428Y-142785538D01*
X125291512Y-142743951D01*
X125249719Y-142716340D01*
X125243530Y-142713475D01*
X125127514Y-142684938D01*
X124992569Y-142687186D01*
X124866182Y-142718896D01*
X124835559Y-142733145D01*
X124719817Y-142824790D01*
X124637080Y-142951940D01*
X124592533Y-143100989D01*
X124591361Y-143258330D01*
X124365465Y-143258330D01*
X124359095Y-143148951D01*
X124382580Y-142985909D01*
X124439218Y-142829877D01*
X124529298Y-142689838D01*
X124653110Y-142574775D01*
X124690104Y-142550516D01*
X124831704Y-142484974D01*
X124984879Y-142447706D01*
X125135316Y-142439359D01*
X125268700Y-142460582D01*
G36*
X129588909Y-141739729D02*
X129658257Y-141782762D01*
X129680045Y-141825738D01*
X129675803Y-141900680D01*
X129623880Y-141951845D01*
X129529691Y-141974598D01*
X129505189Y-141975333D01*
X129399202Y-142001454D01*
X129303813Y-142071413D01*
X129229767Y-142172603D01*
X129187811Y-142292417D01*
X129182222Y-142354240D01*
X129185141Y-142389839D01*
X129201738Y-142411413D01*
X129243772Y-142423241D01*
X129323004Y-142429604D01*
X129397978Y-142432757D01*
X129516452Y-142440238D01*
X129590553Y-142453494D01*
X129632276Y-142475327D01*
X129644778Y-142490389D01*
X129662775Y-142555542D01*
X129629315Y-142605570D01*
X129548166Y-142637012D01*
X129475664Y-142645650D01*
X129371033Y-142653290D01*
X129273250Y-142664005D01*
X129245722Y-142668095D01*
X129154000Y-142683446D01*
X129154000Y-143254443D01*
X129153310Y-143455860D01*
X129150888Y-143608467D01*
X129146205Y-143719887D01*
X129138733Y-143797742D01*
X129127944Y-143849654D01*
X129113310Y-143883246D01*
X129110066Y-143888165D01*
X129051924Y-143942440D01*
X128994035Y-143941049D01*
X128957823Y-143910217D01*
X128945307Y-143874391D01*
X128936163Y-143798600D01*
X128930197Y-143678796D01*
X128927210Y-143510932D01*
X128927007Y-143290962D01*
X128927075Y-143276724D01*
X128930082Y-142683903D01*
X128780985Y-142675340D01*
X128693734Y-142667924D01*
X128647955Y-142653317D01*
X128628682Y-142623520D01*
X128623132Y-142590963D01*
X128624518Y-142539481D01*
X128653646Y-142509063D01*
X128721909Y-142485287D01*
X128808213Y-142465492D01*
X128880978Y-142455540D01*
X128889692Y-142455268D01*
X128924932Y-142447891D01*
X128946881Y-142417343D01*
X128961929Y-142350653D01*
X128969705Y-142292833D01*
X129011269Y-142091955D01*
X129082369Y-141937630D01*
X129184838Y-141827233D01*
X129320510Y-141758139D01*
X129348993Y-141749781D01*
X129483298Y-141728156D01*
X129588909Y-141739729D01*
X129588909Y-141739729D01*
G37*
X129588909Y-141739729D02*
X129658257Y-141782762D01*
X129680045Y-141825738D01*
X129675803Y-141900680D01*
X129623880Y-141951845D01*
X129529691Y-141974598D01*
X129505189Y-141975333D01*
X129399202Y-142001454D01*
X129303813Y-142071413D01*
X129229767Y-142172603D01*
X129187811Y-142292417D01*
X129182222Y-142354240D01*
X129185141Y-142389839D01*
X129201738Y-142411413D01*
X129243772Y-142423241D01*
X129323004Y-142429604D01*
X129397978Y-142432757D01*
X129516452Y-142440238D01*
X129590553Y-142453494D01*
X129632276Y-142475327D01*
X129644778Y-142490389D01*
X129662775Y-142555542D01*
X129629315Y-142605570D01*
X129548166Y-142637012D01*
X129475664Y-142645650D01*
X129371033Y-142653290D01*
X129273250Y-142664005D01*
X129245722Y-142668095D01*
X129154000Y-142683446D01*
X129154000Y-143254443D01*
X129153310Y-143455860D01*
X129150888Y-143608467D01*
X129146205Y-143719887D01*
X129138733Y-143797742D01*
X129127944Y-143849654D01*
X129113310Y-143883246D01*
X129110066Y-143888165D01*
X129051924Y-143942440D01*
X128994035Y-143941049D01*
X128957823Y-143910217D01*
X128945307Y-143874391D01*
X128936163Y-143798600D01*
X128930197Y-143678796D01*
X128927210Y-143510932D01*
X128927007Y-143290962D01*
X128927075Y-143276724D01*
X128930082Y-142683903D01*
X128780985Y-142675340D01*
X128693734Y-142667924D01*
X128647955Y-142653317D01*
X128628682Y-142623520D01*
X128623132Y-142590963D01*
X128624518Y-142539481D01*
X128653646Y-142509063D01*
X128721909Y-142485287D01*
X128808213Y-142465492D01*
X128880978Y-142455540D01*
X128889692Y-142455268D01*
X128924932Y-142447891D01*
X128946881Y-142417343D01*
X128961929Y-142350653D01*
X128969705Y-142292833D01*
X129011269Y-142091955D01*
X129082369Y-141937630D01*
X129184838Y-141827233D01*
X129320510Y-141758139D01*
X129348993Y-141749781D01*
X129483298Y-141728156D01*
X129588909Y-141739729D01*
G36*
X132466807Y-141808411D02*
X132550544Y-141834662D01*
X132664471Y-141880253D01*
X132814572Y-141946830D01*
X133006829Y-142036038D01*
X133100542Y-142080156D01*
X133230902Y-142157657D01*
X133369173Y-142266071D01*
X133500001Y-142390970D01*
X133608032Y-142517928D01*
X133669457Y-142614679D01*
X133726427Y-142778278D01*
X133751494Y-142967280D01*
X133743355Y-143159655D01*
X133710346Y-143306420D01*
X133650363Y-143429728D01*
X133557479Y-143555609D01*
X133445449Y-143669795D01*
X133328025Y-143758019D01*
X133232111Y-143802571D01*
X133108040Y-143829354D01*
X132963649Y-143846534D01*
X132820283Y-143852785D01*
X132699288Y-143846780D01*
X132653037Y-143838562D01*
X132565565Y-143811581D01*
X132461199Y-143773022D01*
X132420204Y-143756135D01*
X132286666Y-143698895D01*
X132286666Y-142824334D01*
X132526555Y-142824334D01*
X132526555Y-143532028D01*
X132597111Y-143571125D01*
X132672070Y-143594184D01*
X132783337Y-143607250D01*
X132911589Y-143609884D01*
X133037502Y-143601647D01*
X133137207Y-143583394D01*
X133260675Y-143521925D01*
X133369807Y-143416978D01*
X133456271Y-143281199D01*
X133511735Y-143127234D01*
X133528287Y-142989819D01*
X133507657Y-142873022D01*
X133452092Y-142740834D01*
X133371560Y-142612062D01*
X133276031Y-142505511D01*
X133267673Y-142498196D01*
X133209404Y-142456529D01*
X133118259Y-142400565D01*
X133006102Y-142336596D01*
X132884793Y-142270912D01*
X132766195Y-142209803D01*
X132662170Y-142159562D01*
X132584579Y-142126477D01*
X132548018Y-142116543D01*
X132542160Y-142143534D01*
X132536911Y-142219423D01*
X132532500Y-142336661D01*
X132529156Y-142487703D01*
X132527107Y-142665002D01*
X132526555Y-142824334D01*
X132286666Y-142824334D01*
X132286666Y-142807036D01*
X132287528Y-142564368D01*
X132290003Y-142348500D01*
X132293925Y-142165154D01*
X132299127Y-142020051D01*
X132305443Y-141918913D01*
X132312706Y-141867460D01*
X132314104Y-141863909D01*
X132336910Y-141829250D01*
X132365973Y-141807350D01*
X132407278Y-141799855D01*
X132466807Y-141808411D01*
X132466807Y-141808411D01*
G37*
X132466807Y-141808411D02*
X132550544Y-141834662D01*
X132664471Y-141880253D01*
X132814572Y-141946830D01*
X133006829Y-142036038D01*
X133100542Y-142080156D01*
X133230902Y-142157657D01*
X133369173Y-142266071D01*
X133500001Y-142390970D01*
X133608032Y-142517928D01*
X133669457Y-142614679D01*
X133726427Y-142778278D01*
X133751494Y-142967280D01*
X133743355Y-143159655D01*
X133710346Y-143306420D01*
X133650363Y-143429728D01*
X133557479Y-143555609D01*
X133445449Y-143669795D01*
X133328025Y-143758019D01*
X133232111Y-143802571D01*
X133108040Y-143829354D01*
X132963649Y-143846534D01*
X132820283Y-143852785D01*
X132699288Y-143846780D01*
X132653037Y-143838562D01*
X132565565Y-143811581D01*
X132461199Y-143773022D01*
X132420204Y-143756135D01*
X132286666Y-143698895D01*
X132286666Y-142824334D01*
X132526555Y-142824334D01*
X132526555Y-143532028D01*
X132597111Y-143571125D01*
X132672070Y-143594184D01*
X132783337Y-143607250D01*
X132911589Y-143609884D01*
X133037502Y-143601647D01*
X133137207Y-143583394D01*
X133260675Y-143521925D01*
X133369807Y-143416978D01*
X133456271Y-143281199D01*
X133511735Y-143127234D01*
X133528287Y-142989819D01*
X133507657Y-142873022D01*
X133452092Y-142740834D01*
X133371560Y-142612062D01*
X133276031Y-142505511D01*
X133267673Y-142498196D01*
X133209404Y-142456529D01*
X133118259Y-142400565D01*
X133006102Y-142336596D01*
X132884793Y-142270912D01*
X132766195Y-142209803D01*
X132662170Y-142159562D01*
X132584579Y-142126477D01*
X132548018Y-142116543D01*
X132542160Y-142143534D01*
X132536911Y-142219423D01*
X132532500Y-142336661D01*
X132529156Y-142487703D01*
X132527107Y-142665002D01*
X132526555Y-142824334D01*
X132286666Y-142824334D01*
X132286666Y-142807036D01*
X132287528Y-142564368D01*
X132290003Y-142348500D01*
X132293925Y-142165154D01*
X132299127Y-142020051D01*
X132305443Y-141918913D01*
X132312706Y-141867460D01*
X132314104Y-141863909D01*
X132336910Y-141829250D01*
X132365973Y-141807350D01*
X132407278Y-141799855D01*
X132466807Y-141808411D01*
G36*
X122349969Y-142463305D02*
X122361591Y-142466565D01*
X122475354Y-142504924D01*
X122546678Y-142548339D01*
X122582627Y-142609088D01*
X122590264Y-142699450D01*
X122576655Y-142831705D01*
X122575675Y-142838705D01*
X122555866Y-143104574D01*
X122577147Y-143346679D01*
X122636829Y-143570005D01*
X122670040Y-143671568D01*
X122682499Y-143735502D01*
X122675929Y-143775955D01*
X122664126Y-143794176D01*
X122621791Y-143830817D01*
X122578356Y-143827664D01*
X122520897Y-143781715D01*
X122495016Y-143754897D01*
X122417387Y-143671795D01*
X122239217Y-143743761D01*
X122137660Y-143782120D01*
X122063403Y-143799621D01*
X121992544Y-143799157D01*
X121904437Y-143784276D01*
X121753368Y-143734480D01*
X121640491Y-143651187D01*
X121563285Y-143530511D01*
X121519227Y-143368567D01*
X121505777Y-143169989D01*
X121508157Y-143119746D01*
X121735422Y-143119746D01*
X121736967Y-143249567D01*
X121762950Y-143372804D01*
X121810110Y-143472574D01*
X121862966Y-143525445D01*
X121936390Y-143546743D01*
X122040501Y-143549847D01*
X122153309Y-143536837D01*
X122252824Y-143509795D01*
X122302520Y-143483839D01*
X122355389Y-143430059D01*
X122363014Y-143372092D01*
X122360975Y-143362474D01*
X122353799Y-143306542D01*
X122347548Y-143209974D01*
X122343089Y-143088577D01*
X122341625Y-143009696D01*
X122337616Y-142887440D01*
X122329439Y-142786810D01*
X122318431Y-142720834D01*
X122310111Y-142702488D01*
X122249241Y-142683969D01*
X122160390Y-142684166D01*
X122068258Y-142701531D01*
X122019431Y-142720702D01*
X121917117Y-142793654D01*
X121824948Y-142892551D01*
X121763637Y-142994942D01*
X121761573Y-143000226D01*
X121735422Y-143119746D01*
X121508157Y-143119746D01*
X121512065Y-143037280D01*
X121535017Y-142931398D01*
X121579368Y-142826516D01*
X121686699Y-142668210D01*
X121826881Y-142548384D01*
X121990459Y-142471390D01*
X122167974Y-142441579D01*
X122349969Y-142463305D01*
X122349969Y-142463305D01*
G37*
X122349969Y-142463305D02*
X122361591Y-142466565D01*
X122475354Y-142504924D01*
X122546678Y-142548339D01*
X122582627Y-142609088D01*
X122590264Y-142699450D01*
X122576655Y-142831705D01*
X122575675Y-142838705D01*
X122555866Y-143104574D01*
X122577147Y-143346679D01*
X122636829Y-143570005D01*
X122670040Y-143671568D01*
X122682499Y-143735502D01*
X122675929Y-143775955D01*
X122664126Y-143794176D01*
X122621791Y-143830817D01*
X122578356Y-143827664D01*
X122520897Y-143781715D01*
X122495016Y-143754897D01*
X122417387Y-143671795D01*
X122239217Y-143743761D01*
X122137660Y-143782120D01*
X122063403Y-143799621D01*
X121992544Y-143799157D01*
X121904437Y-143784276D01*
X121753368Y-143734480D01*
X121640491Y-143651187D01*
X121563285Y-143530511D01*
X121519227Y-143368567D01*
X121505777Y-143169989D01*
X121508157Y-143119746D01*
X121735422Y-143119746D01*
X121736967Y-143249567D01*
X121762950Y-143372804D01*
X121810110Y-143472574D01*
X121862966Y-143525445D01*
X121936390Y-143546743D01*
X122040501Y-143549847D01*
X122153309Y-143536837D01*
X122252824Y-143509795D01*
X122302520Y-143483839D01*
X122355389Y-143430059D01*
X122363014Y-143372092D01*
X122360975Y-143362474D01*
X122353799Y-143306542D01*
X122347548Y-143209974D01*
X122343089Y-143088577D01*
X122341625Y-143009696D01*
X122337616Y-142887440D01*
X122329439Y-142786810D01*
X122318431Y-142720834D01*
X122310111Y-142702488D01*
X122249241Y-142683969D01*
X122160390Y-142684166D01*
X122068258Y-142701531D01*
X122019431Y-142720702D01*
X121917117Y-142793654D01*
X121824948Y-142892551D01*
X121763637Y-142994942D01*
X121761573Y-143000226D01*
X121735422Y-143119746D01*
X121508157Y-143119746D01*
X121512065Y-143037280D01*
X121535017Y-142931398D01*
X121579368Y-142826516D01*
X121686699Y-142668210D01*
X121826881Y-142548384D01*
X121990459Y-142471390D01*
X122167974Y-142441579D01*
X122349969Y-142463305D01*
G36*
X120249889Y-141767572D02*
X120267210Y-141783409D01*
X120279236Y-141820942D01*
X120286832Y-141888527D01*
X120290865Y-141994516D01*
X120292201Y-142147263D01*
X120292222Y-142175908D01*
X120293653Y-142317233D01*
X120297583Y-142435788D01*
X120303465Y-142521467D01*
X120310752Y-142564166D01*
X120313389Y-142567102D01*
X120350438Y-142551028D01*
X120386243Y-142527032D01*
X120486385Y-142477145D01*
X120615302Y-142447453D01*
X120747641Y-142442155D01*
X120825423Y-142454297D01*
X120978778Y-142522033D01*
X121101096Y-142628330D01*
X121191412Y-142763980D01*
X121248757Y-142919777D01*
X121272165Y-143086513D01*
X121260668Y-143254981D01*
X121213300Y-143415973D01*
X121129093Y-143560282D01*
X121007081Y-143678701D01*
X120957425Y-143711072D01*
X120819996Y-143767166D01*
X120662925Y-143794261D01*
X120512221Y-143788875D01*
X120461555Y-143777446D01*
X120329009Y-143748944D01*
X120232340Y-143753961D01*
X120207555Y-143762530D01*
X120176068Y-143773823D01*
X120150588Y-143773972D01*
X120130363Y-143757769D01*
X120114638Y-143720001D01*
X120102661Y-143655458D01*
X120093677Y-143558931D01*
X120086933Y-143425207D01*
X120081675Y-143249078D01*
X120080003Y-143166403D01*
X120292222Y-143166403D01*
X120292222Y-143473836D01*
X120383944Y-143515231D01*
X120495127Y-143545615D01*
X120624612Y-143551904D01*
X120752274Y-143535867D01*
X120857986Y-143499272D01*
X120900769Y-143469831D01*
X120995229Y-143355629D01*
X121043746Y-143225661D01*
X121054222Y-143104222D01*
X121033606Y-142942564D01*
X120970136Y-142814707D01*
X120895757Y-142739825D01*
X120791604Y-142691362D01*
X120663925Y-142682071D01*
X120527745Y-142709897D01*
X120398089Y-142772782D01*
X120341611Y-142815666D01*
X120319174Y-142843964D01*
X120304573Y-142889041D01*
X120296267Y-142961845D01*
X120292714Y-143073328D01*
X120292222Y-143166403D01*
X120080003Y-143166403D01*
X120077150Y-143025332D01*
X120074044Y-142839390D01*
X120070320Y-142566332D01*
X120068847Y-142345089D01*
X120069719Y-142171073D01*
X120073030Y-142039695D01*
X120078872Y-141946368D01*
X120087339Y-141886503D01*
X120093893Y-141864311D01*
X120145307Y-141784591D01*
X120210700Y-141759219D01*
X120249889Y-141767572D01*
X120249889Y-141767572D01*
G37*
X120249889Y-141767572D02*
X120267210Y-141783409D01*
X120279236Y-141820942D01*
X120286832Y-141888527D01*
X120290865Y-141994516D01*
X120292201Y-142147263D01*
X120292222Y-142175908D01*
X120293653Y-142317233D01*
X120297583Y-142435788D01*
X120303465Y-142521467D01*
X120310752Y-142564166D01*
X120313389Y-142567102D01*
X120350438Y-142551028D01*
X120386243Y-142527032D01*
X120486385Y-142477145D01*
X120615302Y-142447453D01*
X120747641Y-142442155D01*
X120825423Y-142454297D01*
X120978778Y-142522033D01*
X121101096Y-142628330D01*
X121191412Y-142763980D01*
X121248757Y-142919777D01*
X121272165Y-143086513D01*
X121260668Y-143254981D01*
X121213300Y-143415973D01*
X121129093Y-143560282D01*
X121007081Y-143678701D01*
X120957425Y-143711072D01*
X120819996Y-143767166D01*
X120662925Y-143794261D01*
X120512221Y-143788875D01*
X120461555Y-143777446D01*
X120329009Y-143748944D01*
X120232340Y-143753961D01*
X120207555Y-143762530D01*
X120176068Y-143773823D01*
X120150588Y-143773972D01*
X120130363Y-143757769D01*
X120114638Y-143720001D01*
X120102661Y-143655458D01*
X120093677Y-143558931D01*
X120086933Y-143425207D01*
X120081675Y-143249078D01*
X120080003Y-143166403D01*
X120292222Y-143166403D01*
X120292222Y-143473836D01*
X120383944Y-143515231D01*
X120495127Y-143545615D01*
X120624612Y-143551904D01*
X120752274Y-143535867D01*
X120857986Y-143499272D01*
X120900769Y-143469831D01*
X120995229Y-143355629D01*
X121043746Y-143225661D01*
X121054222Y-143104222D01*
X121033606Y-142942564D01*
X120970136Y-142814707D01*
X120895757Y-142739825D01*
X120791604Y-142691362D01*
X120663925Y-142682071D01*
X120527745Y-142709897D01*
X120398089Y-142772782D01*
X120341611Y-142815666D01*
X120319174Y-142843964D01*
X120304573Y-142889041D01*
X120296267Y-142961845D01*
X120292714Y-143073328D01*
X120292222Y-143166403D01*
X120080003Y-143166403D01*
X120077150Y-143025332D01*
X120074044Y-142839390D01*
X120070320Y-142566332D01*
X120068847Y-142345089D01*
X120069719Y-142171073D01*
X120073030Y-142039695D01*
X120078872Y-141946368D01*
X120087339Y-141886503D01*
X120093893Y-141864311D01*
X120145307Y-141784591D01*
X120210700Y-141759219D01*
X120249889Y-141767572D01*
G36*
X124050150Y-141730384D02*
X124065176Y-141738644D01*
X124090609Y-141762295D01*
X124105384Y-141802900D01*
X124111636Y-141872933D01*
X124111498Y-141984867D01*
X124111042Y-142006755D01*
X124109104Y-142100930D01*
X124106447Y-142240754D01*
X124103267Y-142415440D01*
X124099757Y-142614200D01*
X124096110Y-142826246D01*
X124093353Y-142990514D01*
X124089254Y-143217689D01*
X124085068Y-143394859D01*
X124080296Y-143528465D01*
X124074440Y-143624946D01*
X124067004Y-143690741D01*
X124057490Y-143732289D01*
X124045399Y-143756029D01*
X124033376Y-143766625D01*
X123989112Y-143777536D01*
X123944382Y-143744674D01*
X123933159Y-143731557D01*
X123880521Y-143667448D01*
X123771605Y-143724217D01*
X123613075Y-143779832D01*
X123440301Y-143795997D01*
X123300299Y-143776169D01*
X123192193Y-143724273D01*
X123082593Y-143636279D01*
X122988486Y-143529116D01*
X122926860Y-143419713D01*
X122919162Y-143396358D01*
X122888439Y-143200379D01*
X122890054Y-143176523D01*
X123094449Y-143176523D01*
X123127309Y-143306859D01*
X123194487Y-143415967D01*
X123289743Y-143497212D01*
X123406836Y-143543958D01*
X123539528Y-143549568D01*
X123681578Y-143507405D01*
X123725798Y-143484032D01*
X123848222Y-143412287D01*
X123848222Y-143143510D01*
X123845247Y-142992486D01*
X123833804Y-142886427D01*
X123810116Y-142814049D01*
X123770409Y-142764067D01*
X123710906Y-142725197D01*
X123707676Y-142723514D01*
X123576613Y-142683397D01*
X123439132Y-142687235D01*
X123310332Y-142730777D01*
X123205311Y-142809769D01*
X123156638Y-142878714D01*
X123102145Y-143031596D01*
X123094449Y-143176523D01*
X122890054Y-143176523D01*
X122901517Y-143007272D01*
X122954699Y-142827429D01*
X123044290Y-142671241D01*
X123166593Y-142549099D01*
X123236023Y-142505515D01*
X123369746Y-142457362D01*
X123516001Y-142439760D01*
X123655680Y-142452740D01*
X123769672Y-142496332D01*
X123782158Y-142504640D01*
X123871317Y-142568193D01*
X123891693Y-142199763D01*
X123902180Y-142037867D01*
X123913871Y-141922628D01*
X123928390Y-141844259D01*
X123947358Y-141792972D01*
X123963044Y-141769277D01*
X124008170Y-141727792D01*
X124050150Y-141730384D01*
X124050150Y-141730384D01*
G37*
X124050150Y-141730384D02*
X124065176Y-141738644D01*
X124090609Y-141762295D01*
X124105384Y-141802900D01*
X124111636Y-141872933D01*
X124111498Y-141984867D01*
X124111042Y-142006755D01*
X124109104Y-142100930D01*
X124106447Y-142240754D01*
X124103267Y-142415440D01*
X124099757Y-142614200D01*
X124096110Y-142826246D01*
X124093353Y-142990514D01*
X124089254Y-143217689D01*
X124085068Y-143394859D01*
X124080296Y-143528465D01*
X124074440Y-143624946D01*
X124067004Y-143690741D01*
X124057490Y-143732289D01*
X124045399Y-143756029D01*
X124033376Y-143766625D01*
X123989112Y-143777536D01*
X123944382Y-143744674D01*
X123933159Y-143731557D01*
X123880521Y-143667448D01*
X123771605Y-143724217D01*
X123613075Y-143779832D01*
X123440301Y-143795997D01*
X123300299Y-143776169D01*
X123192193Y-143724273D01*
X123082593Y-143636279D01*
X122988486Y-143529116D01*
X122926860Y-143419713D01*
X122919162Y-143396358D01*
X122888439Y-143200379D01*
X122890054Y-143176523D01*
X123094449Y-143176523D01*
X123127309Y-143306859D01*
X123194487Y-143415967D01*
X123289743Y-143497212D01*
X123406836Y-143543958D01*
X123539528Y-143549568D01*
X123681578Y-143507405D01*
X123725798Y-143484032D01*
X123848222Y-143412287D01*
X123848222Y-143143510D01*
X123845247Y-142992486D01*
X123833804Y-142886427D01*
X123810116Y-142814049D01*
X123770409Y-142764067D01*
X123710906Y-142725197D01*
X123707676Y-142723514D01*
X123576613Y-142683397D01*
X123439132Y-142687235D01*
X123310332Y-142730777D01*
X123205311Y-142809769D01*
X123156638Y-142878714D01*
X123102145Y-143031596D01*
X123094449Y-143176523D01*
X122890054Y-143176523D01*
X122901517Y-143007272D01*
X122954699Y-142827429D01*
X123044290Y-142671241D01*
X123166593Y-142549099D01*
X123236023Y-142505515D01*
X123369746Y-142457362D01*
X123516001Y-142439760D01*
X123655680Y-142452740D01*
X123769672Y-142496332D01*
X123782158Y-142504640D01*
X123871317Y-142568193D01*
X123891693Y-142199763D01*
X123902180Y-142037867D01*
X123913871Y-141922628D01*
X123928390Y-141844259D01*
X123947358Y-141792972D01*
X123963044Y-141769277D01*
X124008170Y-141727792D01*
X124050150Y-141730384D01*
G36*
X126504640Y-142441485D02*
X126645356Y-142479064D01*
X126761277Y-142545019D01*
X126844153Y-142631222D01*
X126885732Y-142729542D01*
X126883032Y-142814268D01*
X126852873Y-142882575D01*
X126793866Y-142948602D01*
X126699809Y-143016778D01*
X126564500Y-143091536D01*
X126381736Y-143177306D01*
X126363834Y-143185237D01*
X126235645Y-143243016D01*
X126126987Y-143294250D01*
X126047929Y-143334022D01*
X126008541Y-143357420D01*
X126006255Y-143359787D01*
X126017965Y-143388832D01*
X126063914Y-143435986D01*
X126094119Y-143460615D01*
X126217832Y-143523361D01*
X126368072Y-143552580D01*
X126527228Y-143549042D01*
X126677687Y-143513514D01*
X126801837Y-143446765D01*
X126822966Y-143428808D01*
X126885597Y-143376137D01*
X126926926Y-143361469D01*
X126963397Y-143380840D01*
X126975244Y-143392089D01*
X127007017Y-143459686D01*
X126994931Y-143541615D01*
X126941887Y-143620593D01*
X126935947Y-143626279D01*
X126829504Y-143696062D01*
X126686592Y-143750709D01*
X126526145Y-143785864D01*
X126367100Y-143797170D01*
X126247111Y-143784764D01*
X126069619Y-143721286D01*
X125930778Y-143618486D01*
X125833746Y-143480931D01*
X125781682Y-143313191D01*
X125777746Y-143119832D01*
X125778481Y-143113174D01*
X125981928Y-143113174D01*
X125992150Y-143132444D01*
X126025588Y-143121029D01*
X126098754Y-143090033D01*
X126200503Y-143044329D01*
X126307680Y-142994470D01*
X126430179Y-142935254D01*
X126537941Y-142880643D01*
X126618093Y-142837314D01*
X126654652Y-142814530D01*
X126687661Y-142784836D01*
X126682439Y-142762711D01*
X126633211Y-142733184D01*
X126620776Y-142726726D01*
X126485575Y-142684324D01*
X126345954Y-142687129D01*
X126216115Y-142731183D01*
X126110260Y-142812526D01*
X126061516Y-142882603D01*
X126019374Y-142974719D01*
X125991583Y-143056120D01*
X125981928Y-143113174D01*
X125778481Y-143113174D01*
X125779055Y-143107980D01*
X125825257Y-142898800D01*
X125908078Y-142723244D01*
X126022869Y-142585580D01*
X126164986Y-142490078D01*
X126329781Y-142441004D01*
X126504640Y-142441485D01*
X126504640Y-142441485D01*
G37*
X126504640Y-142441485D02*
X126645356Y-142479064D01*
X126761277Y-142545019D01*
X126844153Y-142631222D01*
X126885732Y-142729542D01*
X126883032Y-142814268D01*
X126852873Y-142882575D01*
X126793866Y-142948602D01*
X126699809Y-143016778D01*
X126564500Y-143091536D01*
X126381736Y-143177306D01*
X126363834Y-143185237D01*
X126235645Y-143243016D01*
X126126987Y-143294250D01*
X126047929Y-143334022D01*
X126008541Y-143357420D01*
X126006255Y-143359787D01*
X126017965Y-143388832D01*
X126063914Y-143435986D01*
X126094119Y-143460615D01*
X126217832Y-143523361D01*
X126368072Y-143552580D01*
X126527228Y-143549042D01*
X126677687Y-143513514D01*
X126801837Y-143446765D01*
X126822966Y-143428808D01*
X126885597Y-143376137D01*
X126926926Y-143361469D01*
X126963397Y-143380840D01*
X126975244Y-143392089D01*
X127007017Y-143459686D01*
X126994931Y-143541615D01*
X126941887Y-143620593D01*
X126935947Y-143626279D01*
X126829504Y-143696062D01*
X126686592Y-143750709D01*
X126526145Y-143785864D01*
X126367100Y-143797170D01*
X126247111Y-143784764D01*
X126069619Y-143721286D01*
X125930778Y-143618486D01*
X125833746Y-143480931D01*
X125781682Y-143313191D01*
X125777746Y-143119832D01*
X125778481Y-143113174D01*
X125981928Y-143113174D01*
X125992150Y-143132444D01*
X126025588Y-143121029D01*
X126098754Y-143090033D01*
X126200503Y-143044329D01*
X126307680Y-142994470D01*
X126430179Y-142935254D01*
X126537941Y-142880643D01*
X126618093Y-142837314D01*
X126654652Y-142814530D01*
X126687661Y-142784836D01*
X126682439Y-142762711D01*
X126633211Y-142733184D01*
X126620776Y-142726726D01*
X126485575Y-142684324D01*
X126345954Y-142687129D01*
X126216115Y-142731183D01*
X126110260Y-142812526D01*
X126061516Y-142882603D01*
X126019374Y-142974719D01*
X125991583Y-143056120D01*
X125981928Y-143113174D01*
X125778481Y-143113174D01*
X125779055Y-143107980D01*
X125825257Y-142898800D01*
X125908078Y-142723244D01*
X126022869Y-142585580D01*
X126164986Y-142490078D01*
X126329781Y-142441004D01*
X126504640Y-142441485D01*
G36*
X127496515Y-141739705D02*
X127530251Y-141766728D01*
X127543686Y-141785382D01*
X127553874Y-141815374D01*
X127561044Y-141863151D01*
X127565428Y-141935162D01*
X127567257Y-142037857D01*
X127566759Y-142177683D01*
X127564167Y-142361089D01*
X127559757Y-142592228D01*
X127554972Y-142807353D01*
X127549636Y-143013554D01*
X127544055Y-143201228D01*
X127538534Y-143360775D01*
X127533379Y-143482594D01*
X127529106Y-143554553D01*
X127509939Y-143692259D01*
X127477993Y-143776666D01*
X127431484Y-143809833D01*
X127368632Y-143793823D01*
X127339041Y-143774500D01*
X127326387Y-143761630D01*
X127316483Y-143740031D01*
X127309204Y-143704029D01*
X127304424Y-143647948D01*
X127302017Y-143566116D01*
X127301859Y-143452857D01*
X127303823Y-143302498D01*
X127307783Y-143109364D01*
X127313615Y-142867780D01*
X127316477Y-142755000D01*
X127323510Y-142486696D01*
X127329951Y-142269431D01*
X127336503Y-142097816D01*
X127343873Y-141966459D01*
X127352766Y-141869971D01*
X127363885Y-141802961D01*
X127377936Y-141760039D01*
X127395624Y-141735815D01*
X127417654Y-141724899D01*
X127444730Y-141721900D01*
X127451595Y-141721765D01*
X127496515Y-141739705D01*
X127496515Y-141739705D01*
G37*
X127496515Y-141739705D02*
X127530251Y-141766728D01*
X127543686Y-141785382D01*
X127553874Y-141815374D01*
X127561044Y-141863151D01*
X127565428Y-141935162D01*
X127567257Y-142037857D01*
X127566759Y-142177683D01*
X127564167Y-142361089D01*
X127559757Y-142592228D01*
X127554972Y-142807353D01*
X127549636Y-143013554D01*
X127544055Y-143201228D01*
X127538534Y-143360775D01*
X127533379Y-143482594D01*
X127529106Y-143554553D01*
X127509939Y-143692259D01*
X127477993Y-143776666D01*
X127431484Y-143809833D01*
X127368632Y-143793823D01*
X127339041Y-143774500D01*
X127326387Y-143761630D01*
X127316483Y-143740031D01*
X127309204Y-143704029D01*
X127304424Y-143647948D01*
X127302017Y-143566116D01*
X127301859Y-143452857D01*
X127303823Y-143302498D01*
X127307783Y-143109364D01*
X127313615Y-142867780D01*
X127316477Y-142755000D01*
X127323510Y-142486696D01*
X127329951Y-142269431D01*
X127336503Y-142097816D01*
X127343873Y-141966459D01*
X127352766Y-141869971D01*
X127363885Y-141802961D01*
X127377936Y-141760039D01*
X127395624Y-141735815D01*
X127417654Y-141724899D01*
X127444730Y-141721900D01*
X127451595Y-141721765D01*
X127496515Y-141739705D01*
G36*
X130681529Y-142441485D02*
X130822244Y-142479064D01*
X130938166Y-142545019D01*
X131021042Y-142631222D01*
X131062621Y-142729542D01*
X131059920Y-142814268D01*
X131029762Y-142882575D01*
X130970755Y-142948602D01*
X130876698Y-143016778D01*
X130741389Y-143091536D01*
X130558625Y-143177306D01*
X130540723Y-143185237D01*
X130412534Y-143243016D01*
X130303876Y-143294250D01*
X130224818Y-143334022D01*
X130185429Y-143357420D01*
X130183144Y-143359787D01*
X130194854Y-143388832D01*
X130240803Y-143435986D01*
X130271008Y-143460615D01*
X130394721Y-143523361D01*
X130544961Y-143552580D01*
X130704117Y-143549042D01*
X130854576Y-143513514D01*
X130978726Y-143446765D01*
X130999855Y-143428808D01*
X131062486Y-143376137D01*
X131103815Y-143361469D01*
X131140286Y-143380840D01*
X131152133Y-143392089D01*
X131183906Y-143459686D01*
X131171820Y-143541615D01*
X131118775Y-143620593D01*
X131112835Y-143626279D01*
X131006393Y-143696062D01*
X130863481Y-143750709D01*
X130703034Y-143785864D01*
X130543989Y-143797170D01*
X130424000Y-143784764D01*
X130246508Y-143721286D01*
X130107667Y-143618486D01*
X130010635Y-143480931D01*
X129958571Y-143313191D01*
X129954635Y-143119832D01*
X129955370Y-143113174D01*
X130158816Y-143113174D01*
X130169039Y-143132444D01*
X130202477Y-143121029D01*
X130275643Y-143090033D01*
X130377392Y-143044329D01*
X130484569Y-142994470D01*
X130607068Y-142935254D01*
X130714830Y-142880643D01*
X130794982Y-142837314D01*
X130831541Y-142814530D01*
X130864550Y-142784836D01*
X130859328Y-142762711D01*
X130810100Y-142733184D01*
X130797665Y-142726726D01*
X130662464Y-142684324D01*
X130522843Y-142687129D01*
X130393004Y-142731183D01*
X130287149Y-142812526D01*
X130238405Y-142882603D01*
X130196263Y-142974719D01*
X130168472Y-143056120D01*
X130158816Y-143113174D01*
X129955370Y-143113174D01*
X129955944Y-143107980D01*
X130002146Y-142898800D01*
X130084967Y-142723244D01*
X130199758Y-142585580D01*
X130341875Y-142490078D01*
X130506670Y-142441004D01*
X130681529Y-142441485D01*
X130681529Y-142441485D01*
G37*
X130681529Y-142441485D02*
X130822244Y-142479064D01*
X130938166Y-142545019D01*
X131021042Y-142631222D01*
X131062621Y-142729542D01*
X131059920Y-142814268D01*
X131029762Y-142882575D01*
X130970755Y-142948602D01*
X130876698Y-143016778D01*
X130741389Y-143091536D01*
X130558625Y-143177306D01*
X130540723Y-143185237D01*
X130412534Y-143243016D01*
X130303876Y-143294250D01*
X130224818Y-143334022D01*
X130185429Y-143357420D01*
X130183144Y-143359787D01*
X130194854Y-143388832D01*
X130240803Y-143435986D01*
X130271008Y-143460615D01*
X130394721Y-143523361D01*
X130544961Y-143552580D01*
X130704117Y-143549042D01*
X130854576Y-143513514D01*
X130978726Y-143446765D01*
X130999855Y-143428808D01*
X131062486Y-143376137D01*
X131103815Y-143361469D01*
X131140286Y-143380840D01*
X131152133Y-143392089D01*
X131183906Y-143459686D01*
X131171820Y-143541615D01*
X131118775Y-143620593D01*
X131112835Y-143626279D01*
X131006393Y-143696062D01*
X130863481Y-143750709D01*
X130703034Y-143785864D01*
X130543989Y-143797170D01*
X130424000Y-143784764D01*
X130246508Y-143721286D01*
X130107667Y-143618486D01*
X130010635Y-143480931D01*
X129958571Y-143313191D01*
X129954635Y-143119832D01*
X129955370Y-143113174D01*
X130158816Y-143113174D01*
X130169039Y-143132444D01*
X130202477Y-143121029D01*
X130275643Y-143090033D01*
X130377392Y-143044329D01*
X130484569Y-142994470D01*
X130607068Y-142935254D01*
X130714830Y-142880643D01*
X130794982Y-142837314D01*
X130831541Y-142814530D01*
X130864550Y-142784836D01*
X130859328Y-142762711D01*
X130810100Y-142733184D01*
X130797665Y-142726726D01*
X130662464Y-142684324D01*
X130522843Y-142687129D01*
X130393004Y-142731183D01*
X130287149Y-142812526D01*
X130238405Y-142882603D01*
X130196263Y-142974719D01*
X130168472Y-143056120D01*
X130158816Y-143113174D01*
X129955370Y-143113174D01*
X129955944Y-143107980D01*
X130002146Y-142898800D01*
X130084967Y-142723244D01*
X130199758Y-142585580D01*
X130341875Y-142490078D01*
X130506670Y-142441004D01*
X130681529Y-142441485D01*
G36*
X135365528Y-141888034D02*
X135394190Y-141976533D01*
X135407630Y-142063633D01*
X135415042Y-142161876D01*
X135406719Y-142222934D01*
X135380096Y-142264511D01*
X135378249Y-142266386D01*
X135319745Y-142307174D01*
X135264323Y-142301151D01*
X135202061Y-142245788D01*
X135177531Y-142215222D01*
X135116054Y-142148490D01*
X135054235Y-142120318D01*
X135005360Y-142116444D01*
X134902817Y-142130048D01*
X134805223Y-142175284D01*
X134701611Y-142258795D01*
X134607043Y-142357594D01*
X134471239Y-142532673D01*
X134369723Y-142710569D01*
X134302145Y-142885478D01*
X134268155Y-143051597D01*
X134267402Y-143203121D01*
X134299535Y-143334247D01*
X134364205Y-143439170D01*
X134461060Y-143512087D01*
X134589752Y-143547193D01*
X134678913Y-143547937D01*
X134768583Y-143535241D01*
X134851378Y-143506593D01*
X134946027Y-143454127D01*
X135022986Y-143403379D01*
X135122935Y-143337505D01*
X135189860Y-143301223D01*
X135235526Y-143289776D01*
X135271701Y-143298411D01*
X135276573Y-143300895D01*
X135330238Y-143350622D01*
X135336757Y-143411745D01*
X135303207Y-143479976D01*
X135236661Y-143551023D01*
X135144197Y-143620597D01*
X135032888Y-143684409D01*
X134909810Y-143738168D01*
X134782040Y-143777586D01*
X134656652Y-143798371D01*
X134540721Y-143796235D01*
X134481340Y-143783039D01*
X134311806Y-143701542D01*
X134177720Y-143580177D01*
X134082786Y-143425752D01*
X134030707Y-143245069D01*
X134025185Y-143044935D01*
X134036117Y-142964916D01*
X134106566Y-142709691D01*
X134224295Y-142469435D01*
X134393044Y-142237237D01*
X134484906Y-142135331D01*
X134622708Y-142008954D01*
X134756986Y-141928181D01*
X134903276Y-141885487D01*
X135024222Y-141874120D01*
X135129504Y-141867998D01*
X135218819Y-141858378D01*
X135266082Y-141849076D01*
X135323921Y-141847209D01*
X135365528Y-141888034D01*
X135365528Y-141888034D01*
G37*
X135365528Y-141888034D02*
X135394190Y-141976533D01*
X135407630Y-142063633D01*
X135415042Y-142161876D01*
X135406719Y-142222934D01*
X135380096Y-142264511D01*
X135378249Y-142266386D01*
X135319745Y-142307174D01*
X135264323Y-142301151D01*
X135202061Y-142245788D01*
X135177531Y-142215222D01*
X135116054Y-142148490D01*
X135054235Y-142120318D01*
X135005360Y-142116444D01*
X134902817Y-142130048D01*
X134805223Y-142175284D01*
X134701611Y-142258795D01*
X134607043Y-142357594D01*
X134471239Y-142532673D01*
X134369723Y-142710569D01*
X134302145Y-142885478D01*
X134268155Y-143051597D01*
X134267402Y-143203121D01*
X134299535Y-143334247D01*
X134364205Y-143439170D01*
X134461060Y-143512087D01*
X134589752Y-143547193D01*
X134678913Y-143547937D01*
X134768583Y-143535241D01*
X134851378Y-143506593D01*
X134946027Y-143454127D01*
X135022986Y-143403379D01*
X135122935Y-143337505D01*
X135189860Y-143301223D01*
X135235526Y-143289776D01*
X135271701Y-143298411D01*
X135276573Y-143300895D01*
X135330238Y-143350622D01*
X135336757Y-143411745D01*
X135303207Y-143479976D01*
X135236661Y-143551023D01*
X135144197Y-143620597D01*
X135032888Y-143684409D01*
X134909810Y-143738168D01*
X134782040Y-143777586D01*
X134656652Y-143798371D01*
X134540721Y-143796235D01*
X134481340Y-143783039D01*
X134311806Y-143701542D01*
X134177720Y-143580177D01*
X134082786Y-143425752D01*
X134030707Y-143245069D01*
X134025185Y-143044935D01*
X134036117Y-142964916D01*
X134106566Y-142709691D01*
X134224295Y-142469435D01*
X134393044Y-142237237D01*
X134484906Y-142135331D01*
X134622708Y-142008954D01*
X134756986Y-141928181D01*
X134903276Y-141885487D01*
X135024222Y-141874120D01*
X135129504Y-141867998D01*
X135218819Y-141858378D01*
X135266082Y-141849076D01*
X135323921Y-141847209D01*
X135365528Y-141888034D01*
G36*
X138006173Y-141817480D02*
X138041819Y-141865340D01*
X138044000Y-141881722D01*
X138025303Y-141918930D01*
X137974437Y-141986296D01*
X137899235Y-142074158D01*
X137810272Y-142170007D01*
X137694400Y-142297101D01*
X137602465Y-142411498D01*
X137538940Y-142506588D01*
X137508302Y-142575760D01*
X137512351Y-142610203D01*
X137543863Y-142609586D01*
X137611389Y-142594793D01*
X137664316Y-142579835D01*
X137836953Y-142551853D01*
X138005668Y-142569146D01*
X138158667Y-142627769D01*
X138284156Y-142723774D01*
X138347793Y-142808464D01*
X138380243Y-142872263D01*
X138398861Y-142936164D01*
X138406438Y-143017632D01*
X138405764Y-143134127D01*
X138404813Y-143165344D01*
X138398812Y-143289608D01*
X138387579Y-143375322D01*
X138366532Y-143440377D01*
X138331089Y-143502664D01*
X138310858Y-143532233D01*
X138236590Y-143618275D01*
X138148912Y-143693387D01*
X138113302Y-143716205D01*
X137987463Y-143765431D01*
X137840492Y-143793105D01*
X137699206Y-143795389D01*
X137634777Y-143784728D01*
X137473574Y-143719800D01*
X137349165Y-143616461D01*
X137258981Y-143471517D01*
X137200456Y-143281771D01*
X137191453Y-143232961D01*
X137179937Y-143020820D01*
X137412517Y-143020820D01*
X137417265Y-143120717D01*
X137432949Y-143231055D01*
X137456730Y-143330083D01*
X137477685Y-143382949D01*
X137557899Y-143477419D01*
X137669925Y-143536599D01*
X137799105Y-143557236D01*
X137930780Y-143536077D01*
X138007352Y-143500476D01*
X138109275Y-143408086D01*
X138168183Y-143280631D01*
X138185111Y-143134291D01*
X138178067Y-143034315D01*
X138150499Y-142961869D01*
X138104639Y-142902161D01*
X138051450Y-142850344D01*
X137995603Y-142820866D01*
X137916427Y-142805422D01*
X137848930Y-142799422D01*
X137700566Y-142802852D01*
X137571976Y-142832659D01*
X137474884Y-142884627D01*
X137421546Y-142953115D01*
X137412517Y-143020820D01*
X137179937Y-143020820D01*
X137178664Y-142997384D01*
X137213166Y-142750809D01*
X137292470Y-142508847D01*
X137314569Y-142460113D01*
X137368413Y-142368099D01*
X137448952Y-142255413D01*
X137545994Y-142133895D01*
X137649345Y-142015384D01*
X137748810Y-141911720D01*
X137834197Y-141834741D01*
X137880388Y-141802938D01*
X137944627Y-141792955D01*
X138006173Y-141817480D01*
X138006173Y-141817480D01*
G37*
X138006173Y-141817480D02*
X138041819Y-141865340D01*
X138044000Y-141881722D01*
X138025303Y-141918930D01*
X137974437Y-141986296D01*
X137899235Y-142074158D01*
X137810272Y-142170007D01*
X137694400Y-142297101D01*
X137602465Y-142411498D01*
X137538940Y-142506588D01*
X137508302Y-142575760D01*
X137512351Y-142610203D01*
X137543863Y-142609586D01*
X137611389Y-142594793D01*
X137664316Y-142579835D01*
X137836953Y-142551853D01*
X138005668Y-142569146D01*
X138158667Y-142627769D01*
X138284156Y-142723774D01*
X138347793Y-142808464D01*
X138380243Y-142872263D01*
X138398861Y-142936164D01*
X138406438Y-143017632D01*
X138405764Y-143134127D01*
X138404813Y-143165344D01*
X138398812Y-143289608D01*
X138387579Y-143375322D01*
X138366532Y-143440377D01*
X138331089Y-143502664D01*
X138310858Y-143532233D01*
X138236590Y-143618275D01*
X138148912Y-143693387D01*
X138113302Y-143716205D01*
X137987463Y-143765431D01*
X137840492Y-143793105D01*
X137699206Y-143795389D01*
X137634777Y-143784728D01*
X137473574Y-143719800D01*
X137349165Y-143616461D01*
X137258981Y-143471517D01*
X137200456Y-143281771D01*
X137191453Y-143232961D01*
X137179937Y-143020820D01*
X137412517Y-143020820D01*
X137417265Y-143120717D01*
X137432949Y-143231055D01*
X137456730Y-143330083D01*
X137477685Y-143382949D01*
X137557899Y-143477419D01*
X137669925Y-143536599D01*
X137799105Y-143557236D01*
X137930780Y-143536077D01*
X138007352Y-143500476D01*
X138109275Y-143408086D01*
X138168183Y-143280631D01*
X138185111Y-143134291D01*
X138178067Y-143034315D01*
X138150499Y-142961869D01*
X138104639Y-142902161D01*
X138051450Y-142850344D01*
X137995603Y-142820866D01*
X137916427Y-142805422D01*
X137848930Y-142799422D01*
X137700566Y-142802852D01*
X137571976Y-142832659D01*
X137474884Y-142884627D01*
X137421546Y-142953115D01*
X137412517Y-143020820D01*
X137179937Y-143020820D01*
X137178664Y-142997384D01*
X137213166Y-142750809D01*
X137292470Y-142508847D01*
X137314569Y-142460113D01*
X137368413Y-142368099D01*
X137448952Y-142255413D01*
X137545994Y-142133895D01*
X137649345Y-142015384D01*
X137748810Y-141911720D01*
X137834197Y-141834741D01*
X137880388Y-141802938D01*
X137944627Y-141792955D01*
X138006173Y-141817480D01*
G36*
X119504349Y-141770084D02*
X119522171Y-141785854D01*
X119544398Y-141816165D01*
X119549078Y-141856355D01*
X119535909Y-141923008D01*
X119518540Y-141985264D01*
X119490602Y-142079060D01*
X119466861Y-142154779D01*
X119456163Y-142185953D01*
X119456009Y-142212016D01*
X119488700Y-142225201D01*
X119565103Y-142229275D01*
X119581339Y-142229333D01*
X119697710Y-142233826D01*
X119768259Y-142250530D01*
X119803124Y-142284282D01*
X119812444Y-142339597D01*
X119802156Y-142409619D01*
X119765096Y-142453393D01*
X119691970Y-142476191D01*
X119573484Y-142483285D01*
X119559051Y-142483333D01*
X119373390Y-142483333D01*
X119324163Y-142673833D01*
X119296643Y-142780138D01*
X119272707Y-142872265D01*
X119258176Y-142927833D01*
X119252549Y-142964451D01*
X119268891Y-142983419D01*
X119319513Y-142990575D01*
X119392875Y-142991719D01*
X119526801Y-142997009D01*
X119614547Y-143014273D01*
X119665709Y-143046820D01*
X119688904Y-143093850D01*
X119694724Y-143160200D01*
X119668475Y-143204943D01*
X119603570Y-143231588D01*
X119493421Y-143243643D01*
X119404490Y-143245333D01*
X119172781Y-143245333D01*
X119118668Y-143463907D01*
X119070878Y-143620840D01*
X119018051Y-143723701D01*
X118958810Y-143774743D01*
X118924437Y-143781555D01*
X118870559Y-143757897D01*
X118846878Y-143688163D01*
X118853794Y-143574213D01*
X118866540Y-143510938D01*
X118890689Y-143412748D01*
X118912730Y-143331712D01*
X118924563Y-143294722D01*
X118928369Y-143273533D01*
X118914480Y-143259428D01*
X118874071Y-143250987D01*
X118798317Y-143246788D01*
X118678392Y-143245412D01*
X118617727Y-143245333D01*
X118291860Y-143245333D01*
X118218874Y-143484616D01*
X118170772Y-143623593D01*
X118126218Y-143715167D01*
X118092022Y-143752727D01*
X118045395Y-143774876D01*
X118029244Y-143779327D01*
X117998792Y-143768309D01*
X117985055Y-143762864D01*
X117956447Y-143727511D01*
X117954023Y-143652488D01*
X117978028Y-143533969D01*
X118005858Y-143438348D01*
X118034302Y-143346791D01*
X118054606Y-143279879D01*
X118062302Y-143252389D01*
X118037182Y-143248293D01*
X117972803Y-143245747D01*
X117927200Y-143245333D01*
X117816237Y-143234877D01*
X117751263Y-143200477D01*
X117725255Y-143137586D01*
X117724000Y-143113682D01*
X117744417Y-143051125D01*
X117808348Y-143011592D01*
X117919811Y-142993207D01*
X117986144Y-142991333D01*
X118139110Y-142991333D01*
X118144926Y-142971623D01*
X118373111Y-142971623D01*
X118399461Y-142979432D01*
X118471033Y-142985778D01*
X118576610Y-142989971D01*
X118693239Y-142991333D01*
X119013367Y-142991333D01*
X119074239Y-142769216D01*
X119102640Y-142661875D01*
X119123968Y-142574208D01*
X119134564Y-142521477D01*
X119135111Y-142515216D01*
X119110294Y-142499274D01*
X119034445Y-142488907D01*
X118905465Y-142483898D01*
X118825573Y-142483333D01*
X118516036Y-142483333D01*
X118444573Y-142717623D01*
X118412329Y-142825469D01*
X118387648Y-142912082D01*
X118374370Y-142963814D01*
X118373111Y-142971623D01*
X118144926Y-142971623D01*
X118203661Y-142772611D01*
X118235562Y-142665609D01*
X118262364Y-142577687D01*
X118279279Y-142524500D01*
X118281347Y-142518611D01*
X118272643Y-142498938D01*
X118223620Y-142487685D01*
X118127110Y-142483458D01*
X118099552Y-142483333D01*
X117972817Y-142477768D01*
X117892768Y-142458051D01*
X117850472Y-142419645D01*
X117836995Y-142358016D01*
X117836889Y-142349990D01*
X117855068Y-142294718D01*
X117912982Y-142257398D01*
X118015694Y-142236210D01*
X118168267Y-142229337D01*
X118172901Y-142229333D01*
X118364129Y-142229333D01*
X118400236Y-142067991D01*
X118425248Y-141967465D01*
X118451071Y-141880981D01*
X118465454Y-141842755D01*
X118516377Y-141779346D01*
X118582226Y-141758397D01*
X118646068Y-141784843D01*
X118650301Y-141788873D01*
X118673322Y-141818031D01*
X118680827Y-141854375D01*
X118672600Y-141913335D01*
X118648429Y-142010341D01*
X118647154Y-142015128D01*
X118622597Y-142109604D01*
X118605217Y-142180891D01*
X118598889Y-142212799D01*
X118625203Y-142219466D01*
X118696524Y-142224846D01*
X118801418Y-142228327D01*
X118907015Y-142229333D01*
X119215142Y-142229333D01*
X119289899Y-142004859D01*
X119343825Y-141866427D01*
X119396196Y-141782422D01*
X119449032Y-141750942D01*
X119504349Y-141770084D01*
X119504349Y-141770084D01*
G37*
X119504349Y-141770084D02*
X119522171Y-141785854D01*
X119544398Y-141816165D01*
X119549078Y-141856355D01*
X119535909Y-141923008D01*
X119518540Y-141985264D01*
X119490602Y-142079060D01*
X119466861Y-142154779D01*
X119456163Y-142185953D01*
X119456009Y-142212016D01*
X119488700Y-142225201D01*
X119565103Y-142229275D01*
X119581339Y-142229333D01*
X119697710Y-142233826D01*
X119768259Y-142250530D01*
X119803124Y-142284282D01*
X119812444Y-142339597D01*
X119802156Y-142409619D01*
X119765096Y-142453393D01*
X119691970Y-142476191D01*
X119573484Y-142483285D01*
X119559051Y-142483333D01*
X119373390Y-142483333D01*
X119324163Y-142673833D01*
X119296643Y-142780138D01*
X119272707Y-142872265D01*
X119258176Y-142927833D01*
X119252549Y-142964451D01*
X119268891Y-142983419D01*
X119319513Y-142990575D01*
X119392875Y-142991719D01*
X119526801Y-142997009D01*
X119614547Y-143014273D01*
X119665709Y-143046820D01*
X119688904Y-143093850D01*
X119694724Y-143160200D01*
X119668475Y-143204943D01*
X119603570Y-143231588D01*
X119493421Y-143243643D01*
X119404490Y-143245333D01*
X119172781Y-143245333D01*
X119118668Y-143463907D01*
X119070878Y-143620840D01*
X119018051Y-143723701D01*
X118958810Y-143774743D01*
X118924437Y-143781555D01*
X118870559Y-143757897D01*
X118846878Y-143688163D01*
X118853794Y-143574213D01*
X118866540Y-143510938D01*
X118890689Y-143412748D01*
X118912730Y-143331712D01*
X118924563Y-143294722D01*
X118928369Y-143273533D01*
X118914480Y-143259428D01*
X118874071Y-143250987D01*
X118798317Y-143246788D01*
X118678392Y-143245412D01*
X118617727Y-143245333D01*
X118291860Y-143245333D01*
X118218874Y-143484616D01*
X118170772Y-143623593D01*
X118126218Y-143715167D01*
X118092022Y-143752727D01*
X118045395Y-143774876D01*
X118029244Y-143779327D01*
X117998792Y-143768309D01*
X117985055Y-143762864D01*
X117956447Y-143727511D01*
X117954023Y-143652488D01*
X117978028Y-143533969D01*
X118005858Y-143438348D01*
X118034302Y-143346791D01*
X118054606Y-143279879D01*
X118062302Y-143252389D01*
X118037182Y-143248293D01*
X117972803Y-143245747D01*
X117927200Y-143245333D01*
X117816237Y-143234877D01*
X117751263Y-143200477D01*
X117725255Y-143137586D01*
X117724000Y-143113682D01*
X117744417Y-143051125D01*
X117808348Y-143011592D01*
X117919811Y-142993207D01*
X117986144Y-142991333D01*
X118139110Y-142991333D01*
X118144926Y-142971623D01*
X118373111Y-142971623D01*
X118399461Y-142979432D01*
X118471033Y-142985778D01*
X118576610Y-142989971D01*
X118693239Y-142991333D01*
X119013367Y-142991333D01*
X119074239Y-142769216D01*
X119102640Y-142661875D01*
X119123968Y-142574208D01*
X119134564Y-142521477D01*
X119135111Y-142515216D01*
X119110294Y-142499274D01*
X119034445Y-142488907D01*
X118905465Y-142483898D01*
X118825573Y-142483333D01*
X118516036Y-142483333D01*
X118444573Y-142717623D01*
X118412329Y-142825469D01*
X118387648Y-142912082D01*
X118374370Y-142963814D01*
X118373111Y-142971623D01*
X118144926Y-142971623D01*
X118203661Y-142772611D01*
X118235562Y-142665609D01*
X118262364Y-142577687D01*
X118279279Y-142524500D01*
X118281347Y-142518611D01*
X118272643Y-142498938D01*
X118223620Y-142487685D01*
X118127110Y-142483458D01*
X118099552Y-142483333D01*
X117972817Y-142477768D01*
X117892768Y-142458051D01*
X117850472Y-142419645D01*
X117836995Y-142358016D01*
X117836889Y-142349990D01*
X117855068Y-142294718D01*
X117912982Y-142257398D01*
X118015694Y-142236210D01*
X118168267Y-142229337D01*
X118172901Y-142229333D01*
X118364129Y-142229333D01*
X118400236Y-142067991D01*
X118425248Y-141967465D01*
X118451071Y-141880981D01*
X118465454Y-141842755D01*
X118516377Y-141779346D01*
X118582226Y-141758397D01*
X118646068Y-141784843D01*
X118650301Y-141788873D01*
X118673322Y-141818031D01*
X118680827Y-141854375D01*
X118672600Y-141913335D01*
X118648429Y-142010341D01*
X118647154Y-142015128D01*
X118622597Y-142109604D01*
X118605217Y-142180891D01*
X118598889Y-142212799D01*
X118625203Y-142219466D01*
X118696524Y-142224846D01*
X118801418Y-142228327D01*
X118907015Y-142229333D01*
X119215142Y-142229333D01*
X119289899Y-142004859D01*
X119343825Y-141866427D01*
X119396196Y-141782422D01*
X119449032Y-141750942D01*
X119504349Y-141770084D01*
G36*
X128206518Y-142453557D02*
X128209909Y-142456235D01*
X128225834Y-142497307D01*
X128238345Y-142584286D01*
X128247470Y-142706741D01*
X128253237Y-142854240D01*
X128255674Y-143016349D01*
X128254809Y-143182639D01*
X128250670Y-143342676D01*
X128243286Y-143486028D01*
X128232684Y-143602264D01*
X128218892Y-143680952D01*
X128206539Y-143708984D01*
X128140263Y-143749752D01*
X128078420Y-143734332D01*
X128049977Y-143706956D01*
X128035893Y-143676945D01*
X128025712Y-143621351D01*
X128019031Y-143533382D01*
X128015447Y-143406248D01*
X128014557Y-143233157D01*
X128015052Y-143118527D01*
X128017121Y-142945631D01*
X128020743Y-142789192D01*
X128025549Y-142659132D01*
X128031169Y-142565374D01*
X128037235Y-142517841D01*
X128037419Y-142517237D01*
X128079083Y-142459594D01*
X128143138Y-142435648D01*
X128206518Y-142453557D01*
X128206518Y-142453557D01*
G37*
X128206518Y-142453557D02*
X128209909Y-142456235D01*
X128225834Y-142497307D01*
X128238345Y-142584286D01*
X128247470Y-142706741D01*
X128253237Y-142854240D01*
X128255674Y-143016349D01*
X128254809Y-143182639D01*
X128250670Y-143342676D01*
X128243286Y-143486028D01*
X128232684Y-143602264D01*
X128218892Y-143680952D01*
X128206539Y-143708984D01*
X128140263Y-143749752D01*
X128078420Y-143734332D01*
X128049977Y-143706956D01*
X128035893Y-143676945D01*
X128025712Y-143621351D01*
X128019031Y-143533382D01*
X128015447Y-143406248D01*
X128014557Y-143233157D01*
X128015052Y-143118527D01*
X128017121Y-142945631D01*
X128020743Y-142789192D01*
X128025549Y-142659132D01*
X128031169Y-142565374D01*
X128037235Y-142517841D01*
X128037419Y-142517237D01*
X128079083Y-142459594D01*
X128143138Y-142435648D01*
X128206518Y-142453557D01*
G36*
X136493876Y-141828662D02*
X136634856Y-141897198D01*
X136743117Y-141999894D01*
X136746493Y-142004560D01*
X136780241Y-142061328D01*
X136797130Y-142122778D01*
X136800652Y-142208225D01*
X136797404Y-142286205D01*
X136779301Y-142424147D01*
X136737452Y-142541647D01*
X136664863Y-142648734D01*
X136554541Y-142755437D01*
X136399494Y-142871785D01*
X136379539Y-142885514D01*
X136202688Y-143012232D01*
X136071700Y-143121009D01*
X135981358Y-143217928D01*
X135926450Y-143309072D01*
X135901760Y-143400523D01*
X135899111Y-143445962D01*
X135900906Y-143471052D01*
X135912361Y-143487582D01*
X135942581Y-143496626D01*
X136000672Y-143499258D01*
X136095738Y-143496553D01*
X136236886Y-143489587D01*
X136258944Y-143488432D01*
X136413420Y-143481370D01*
X136523581Y-143479663D01*
X136601372Y-143484125D01*
X136658741Y-143495571D01*
X136707632Y-143514817D01*
X136717555Y-143519730D01*
X136784257Y-143569074D01*
X136822893Y-143627449D01*
X136827500Y-143680337D01*
X136796409Y-143711721D01*
X136756561Y-143716867D01*
X136671774Y-143721776D01*
X136553555Y-143726240D01*
X136413409Y-143730054D01*
X136262844Y-143733010D01*
X136113364Y-143734903D01*
X135976477Y-143735526D01*
X135863687Y-143734673D01*
X135786502Y-143732138D01*
X135765102Y-143730210D01*
X135714374Y-143705653D01*
X135684591Y-143645235D01*
X135673954Y-143542501D01*
X135678469Y-143419208D01*
X135693368Y-143298995D01*
X135723399Y-143197738D01*
X135775405Y-143105702D01*
X135856232Y-143013149D01*
X135972725Y-142910342D01*
X136112300Y-142802063D01*
X136269649Y-142681365D01*
X136385981Y-142584654D01*
X136467648Y-142505221D01*
X136521002Y-142436357D01*
X136552394Y-142371351D01*
X136564801Y-142324027D01*
X136561969Y-142212960D01*
X136507356Y-142124271D01*
X136435898Y-142074403D01*
X136346200Y-142039085D01*
X136257885Y-142031742D01*
X136161447Y-142055150D01*
X136047378Y-142112084D01*
X135906171Y-142205319D01*
X135851292Y-142245044D01*
X135778366Y-142275775D01*
X135715185Y-142264821D01*
X135677639Y-142217374D01*
X135673333Y-142186875D01*
X135696972Y-142119910D01*
X135760480Y-142039583D01*
X135852746Y-141956756D01*
X135962656Y-141882292D01*
X136012000Y-141855832D01*
X136168711Y-141805198D01*
X136333916Y-141797068D01*
X136493876Y-141828662D01*
X136493876Y-141828662D01*
G37*
X136493876Y-141828662D02*
X136634856Y-141897198D01*
X136743117Y-141999894D01*
X136746493Y-142004560D01*
X136780241Y-142061328D01*
X136797130Y-142122778D01*
X136800652Y-142208225D01*
X136797404Y-142286205D01*
X136779301Y-142424147D01*
X136737452Y-142541647D01*
X136664863Y-142648734D01*
X136554541Y-142755437D01*
X136399494Y-142871785D01*
X136379539Y-142885514D01*
X136202688Y-143012232D01*
X136071700Y-143121009D01*
X135981358Y-143217928D01*
X135926450Y-143309072D01*
X135901760Y-143400523D01*
X135899111Y-143445962D01*
X135900906Y-143471052D01*
X135912361Y-143487582D01*
X135942581Y-143496626D01*
X136000672Y-143499258D01*
X136095738Y-143496553D01*
X136236886Y-143489587D01*
X136258944Y-143488432D01*
X136413420Y-143481370D01*
X136523581Y-143479663D01*
X136601372Y-143484125D01*
X136658741Y-143495571D01*
X136707632Y-143514817D01*
X136717555Y-143519730D01*
X136784257Y-143569074D01*
X136822893Y-143627449D01*
X136827500Y-143680337D01*
X136796409Y-143711721D01*
X136756561Y-143716867D01*
X136671774Y-143721776D01*
X136553555Y-143726240D01*
X136413409Y-143730054D01*
X136262844Y-143733010D01*
X136113364Y-143734903D01*
X135976477Y-143735526D01*
X135863687Y-143734673D01*
X135786502Y-143732138D01*
X135765102Y-143730210D01*
X135714374Y-143705653D01*
X135684591Y-143645235D01*
X135673954Y-143542501D01*
X135678469Y-143419208D01*
X135693368Y-143298995D01*
X135723399Y-143197738D01*
X135775405Y-143105702D01*
X135856232Y-143013149D01*
X135972725Y-142910342D01*
X136112300Y-142802063D01*
X136269649Y-142681365D01*
X136385981Y-142584654D01*
X136467648Y-142505221D01*
X136521002Y-142436357D01*
X136552394Y-142371351D01*
X136564801Y-142324027D01*
X136561969Y-142212960D01*
X136507356Y-142124271D01*
X136435898Y-142074403D01*
X136346200Y-142039085D01*
X136257885Y-142031742D01*
X136161447Y-142055150D01*
X136047378Y-142112084D01*
X135906171Y-142205319D01*
X135851292Y-142245044D01*
X135778366Y-142275775D01*
X135715185Y-142264821D01*
X135677639Y-142217374D01*
X135673333Y-142186875D01*
X135696972Y-142119910D01*
X135760480Y-142039583D01*
X135852746Y-141956756D01*
X135962656Y-141882292D01*
X136012000Y-141855832D01*
X136168711Y-141805198D01*
X136333916Y-141797068D01*
X136493876Y-141828662D01*
G36*
X128249194Y-141892212D02*
X128263844Y-141901425D01*
X128323564Y-141958443D01*
X128326910Y-142014902D01*
X128273929Y-142071738D01*
X128272831Y-142072511D01*
X128204220Y-142109824D01*
X128146026Y-142107122D01*
X128102722Y-142085961D01*
X128059447Y-142033729D01*
X128056620Y-141966523D01*
X128092038Y-141906339D01*
X128122732Y-141886058D01*
X128186957Y-141869708D01*
X128249194Y-141892212D01*
X128249194Y-141892212D01*
G37*
X128249194Y-141892212D02*
X128263844Y-141901425D01*
X128323564Y-141958443D01*
X128326910Y-142014902D01*
X128273929Y-142071738D01*
X128272831Y-142072511D01*
X128204220Y-142109824D01*
X128146026Y-142107122D01*
X128102722Y-142085961D01*
X128059447Y-142033729D01*
X128056620Y-141966523D01*
X128092038Y-141906339D01*
X128122732Y-141886058D01*
X128186957Y-141869708D01*
X128249194Y-141892212D01*
D10*
X131216667Y-178283333D02*
X131283334Y-178316667D01*
X131416667Y-178316667D01*
X131483334Y-178283333D01*
X131516667Y-178216667D01*
X131516667Y-178183333D01*
X131483334Y-178116667D01*
X131416667Y-178083333D01*
X131316667Y-178083333D01*
X131250001Y-178050000D01*
X131216667Y-177983333D01*
X131216667Y-177950000D01*
X131250001Y-177883333D01*
X131316667Y-177850000D01*
X131416667Y-177850000D01*
X131483334Y-177883333D01*
X132116668Y-178316667D02*
X132116668Y-177616667D01*
X132116668Y-178283333D02*
X132050001Y-178316667D01*
X131916668Y-178316667D01*
X131850001Y-178283333D01*
X131816668Y-178250000D01*
X131783334Y-178183333D01*
X131783334Y-177983333D01*
X131816668Y-177916667D01*
X131850001Y-177883333D01*
X131916668Y-177850000D01*
X132050001Y-177850000D01*
X132116668Y-177883333D01*
X132750001Y-178316667D02*
X132750001Y-177950000D01*
X132716667Y-177883333D01*
X132650001Y-177850000D01*
X132516667Y-177850000D01*
X132450001Y-177883333D01*
X132750001Y-178283333D02*
X132683334Y-178316667D01*
X132516667Y-178316667D01*
X132450001Y-178283333D01*
X132416667Y-178216667D01*
X132416667Y-178150000D01*
X132450001Y-178083333D01*
X132516667Y-178050000D01*
X132683334Y-178050000D01*
X132750001Y-178016667D01*
X131116666Y-182033333D02*
X131183333Y-182066667D01*
X131316666Y-182066667D01*
X131383333Y-182033333D01*
X131416666Y-181966667D01*
X131416666Y-181933333D01*
X131383333Y-181866667D01*
X131316666Y-181833333D01*
X131216666Y-181833333D01*
X131150000Y-181800000D01*
X131116666Y-181733333D01*
X131116666Y-181700000D01*
X131150000Y-181633333D01*
X131216666Y-181600000D01*
X131316666Y-181600000D01*
X131383333Y-181633333D01*
X132016667Y-182033333D02*
X131950000Y-182066667D01*
X131816667Y-182066667D01*
X131750000Y-182033333D01*
X131716667Y-182000000D01*
X131683333Y-181933333D01*
X131683333Y-181733333D01*
X131716667Y-181666667D01*
X131750000Y-181633333D01*
X131816667Y-181600000D01*
X131950000Y-181600000D01*
X132016667Y-181633333D01*
X132416667Y-182066667D02*
X132350000Y-182033333D01*
X132316667Y-181966667D01*
X132316667Y-181366667D01*
X124766668Y-181600000D02*
X124766668Y-182166667D01*
X124733334Y-182233333D01*
X124700001Y-182266667D01*
X124633334Y-182300000D01*
X124533334Y-182300000D01*
X124466668Y-182266667D01*
X124766668Y-182033333D02*
X124700001Y-182066667D01*
X124566668Y-182066667D01*
X124500001Y-182033333D01*
X124466668Y-182000000D01*
X124433334Y-181933333D01*
X124433334Y-181733333D01*
X124466668Y-181666667D01*
X124500001Y-181633333D01*
X124566668Y-181600000D01*
X124700001Y-181600000D01*
X124766668Y-181633333D01*
X125100001Y-181600000D02*
X125100001Y-182066667D01*
X125100001Y-181666667D02*
X125133334Y-181633333D01*
X125200001Y-181600000D01*
X125300001Y-181600000D01*
X125366667Y-181633333D01*
X125400001Y-181700000D01*
X125400001Y-182066667D01*
X126033334Y-182066667D02*
X126033334Y-181366667D01*
X126033334Y-182033333D02*
X125966667Y-182066667D01*
X125833334Y-182066667D01*
X125766667Y-182033333D01*
X125733334Y-182000000D01*
X125700000Y-181933333D01*
X125700000Y-181733333D01*
X125733334Y-181666667D01*
X125766667Y-181633333D01*
X125833334Y-181600000D01*
X125966667Y-181600000D01*
X126033334Y-181633333D01*
X124000000Y-177616667D02*
X124433333Y-177616667D01*
X124200000Y-177883333D01*
X124300000Y-177883333D01*
X124366667Y-177916667D01*
X124400000Y-177950000D01*
X124433333Y-178016667D01*
X124433333Y-178183333D01*
X124400000Y-178250000D01*
X124366667Y-178283333D01*
X124300000Y-178316667D01*
X124100000Y-178316667D01*
X124033333Y-178283333D01*
X124000000Y-178250000D01*
X124733334Y-178250000D02*
X124766667Y-178283333D01*
X124733334Y-178316667D01*
X124700000Y-178283333D01*
X124733334Y-178250000D01*
X124733334Y-178316667D01*
X125000000Y-177616667D02*
X125433333Y-177616667D01*
X125200000Y-177883333D01*
X125300000Y-177883333D01*
X125366667Y-177916667D01*
X125400000Y-177950000D01*
X125433333Y-178016667D01*
X125433333Y-178183333D01*
X125400000Y-178250000D01*
X125366667Y-178283333D01*
X125300000Y-178316667D01*
X125100000Y-178316667D01*
X125033333Y-178283333D01*
X125000000Y-178250000D01*
X125666667Y-177850000D02*
X125833334Y-178316667D01*
X126000000Y-177850000D01*
M02*
