M48
;DRILL file {KiCad 4.0.7-e2-6376~61~ubuntu18.04.1} date Wed Jun  6 20:56:47 2018
;FORMAT={-:-/ absolute / inch / decimal}
FMAT,2
INCH,TZ
T1C0.039
%
G90
G05
M72
T1
X4.559Y-6.04
X4.559Y-6.14
X4.559Y-6.24
X4.559Y-6.34
X4.559Y-6.44
X4.559Y-6.54
X4.559Y-6.64
X4.559Y-6.74
X4.66Y-5.94
X4.66Y-6.04
X4.66Y-6.14
X4.66Y-6.24
X4.66Y-6.34
X4.66Y-6.4394
X4.66Y-6.5394
X4.66Y-6.6402
X4.66Y-6.7402
X4.66Y-6.84
X4.76Y-5.94
X4.76Y-6.04
X4.76Y-6.14
X4.76Y-6.24
X4.76Y-6.34
X4.76Y-6.4394
X4.76Y-6.5394
X4.76Y-6.6402
X4.76Y-6.7402
X4.76Y-6.84
X4.86Y-5.94
X4.86Y-6.04
X4.86Y-6.14
X4.86Y-6.24
X4.86Y-6.34
X4.86Y-6.4394
X4.86Y-6.5394
X4.86Y-6.6402
X4.86Y-6.7402
X4.86Y-6.84
X4.96Y-5.94
X4.96Y-6.04
X4.96Y-6.14
X4.96Y-6.24
X4.96Y-6.34
X4.96Y-6.4394
X4.96Y-6.5394
X4.96Y-6.6402
X4.96Y-6.7402
X4.96Y-6.84
X5.0091Y-7.0169
X5.0091Y-7.1169
X5.06Y-5.94
X5.06Y-6.04
X5.06Y-6.14
X5.06Y-6.24
X5.06Y-6.34
X5.06Y-6.4394
X5.06Y-6.5394
X5.06Y-6.6402
X5.06Y-6.7402
X5.06Y-6.84
X5.1091Y-7.0169
X5.1091Y-7.1169
X5.16Y-5.94
X5.16Y-6.04
X5.16Y-6.14
X5.16Y-6.24
X5.16Y-6.34
X5.16Y-6.4394
X5.16Y-6.5394
X5.16Y-6.6402
X5.16Y-6.7402
X5.16Y-6.84
X5.26Y-5.94
X5.26Y-6.04
X5.26Y-6.14
X5.26Y-6.24
X5.26Y-6.34
X5.26Y-6.4394
X5.26Y-6.5394
X5.26Y-6.6402
X5.26Y-6.7402
X5.26Y-6.84
X5.36Y-5.94
X5.36Y-6.04
X5.36Y-6.14
X5.36Y-6.24
X5.36Y-6.34
X5.36Y-6.4394
X5.36Y-6.5394
X5.36Y-6.6402
X5.36Y-6.7402
X5.36Y-6.84
X5.46Y-5.94
X5.46Y-6.04
X5.46Y-6.14
X5.46Y-6.24
X5.46Y-6.34
X5.46Y-6.4394
X5.46Y-6.5394
X5.46Y-6.6402
X5.46Y-6.7402
X5.46Y-6.84
X5.56Y-6.04
X5.56Y-6.14
X5.56Y-6.24
X5.56Y-6.34
X5.56Y-6.44
X5.56Y-6.54
X5.56Y-6.64
X5.56Y-6.74
T0
M30
