G04 #@! TF.FileFunction,Copper,L2,Bot,Signal*
%FSLAX46Y46*%
G04 Gerber Fmt 4.6, Leading zero omitted, Abs format (unit mm)*
G04 Created by KiCad (PCBNEW 4.0.7-e2-6376~61~ubuntu18.04.1) date Wed Jun  6 20:56:43 2018*
%MOMM*%
%LPD*%
G01*
G04 APERTURE LIST*
%ADD10C,0.100000*%
%ADD11C,1.700000*%
%ADD12O,1.700000X1.700000*%
%ADD13R,1.700000X1.700000*%
%ADD14C,0.600000*%
G04 APERTURE END LIST*
D10*
D11*
X118364000Y-171200000D03*
D12*
X118364000Y-168660000D03*
X120904000Y-171200000D03*
X120904000Y-168660000D03*
X123444000Y-171200000D03*
X123444000Y-168660000D03*
X125984000Y-171200000D03*
X125984000Y-168660000D03*
X128524000Y-171200000D03*
X128524000Y-168660000D03*
X131064000Y-171200000D03*
X131064000Y-168660000D03*
X133604000Y-171200000D03*
X133604000Y-168660000D03*
X136144000Y-171200000D03*
X136144000Y-168660000D03*
X138684000Y-171200000D03*
X138684000Y-168660000D03*
D11*
X118364000Y-166100000D03*
D12*
X118364000Y-163560000D03*
X120904000Y-166100000D03*
X120904000Y-163560000D03*
X123444000Y-166100000D03*
X123444000Y-163560000D03*
X125984000Y-166100000D03*
X125984000Y-163560000D03*
X128524000Y-166100000D03*
X128524000Y-163560000D03*
X131064000Y-166100000D03*
X131064000Y-163560000D03*
X133604000Y-166100000D03*
X133604000Y-163560000D03*
X136144000Y-166100000D03*
X136144000Y-163560000D03*
X138684000Y-166100000D03*
X138684000Y-163560000D03*
D11*
X118364000Y-161036000D03*
D12*
X118364000Y-158496000D03*
X120904000Y-161036000D03*
X120904000Y-158496000D03*
X123444000Y-161036000D03*
X123444000Y-158496000D03*
X125984000Y-161036000D03*
X125984000Y-158496000D03*
X128524000Y-161036000D03*
X128524000Y-158496000D03*
X131064000Y-161036000D03*
X131064000Y-158496000D03*
X133604000Y-161036000D03*
X133604000Y-158496000D03*
X136144000Y-161036000D03*
X136144000Y-158496000D03*
X138684000Y-161036000D03*
X138684000Y-158496000D03*
D11*
X118364000Y-155956000D03*
D12*
X118364000Y-153416000D03*
X120904000Y-155956000D03*
X120904000Y-153416000D03*
X123444000Y-155956000D03*
X123444000Y-153416000D03*
X125984000Y-155956000D03*
X125984000Y-153416000D03*
X128524000Y-155956000D03*
X128524000Y-153416000D03*
X131064000Y-155956000D03*
X131064000Y-153416000D03*
X133604000Y-155956000D03*
X133604000Y-153416000D03*
X136144000Y-155956000D03*
X136144000Y-153416000D03*
X138684000Y-155956000D03*
X138684000Y-153416000D03*
D11*
X129770000Y-178230000D03*
D12*
X129770000Y-180770000D03*
X127230000Y-178230000D03*
X127230000Y-180770000D03*
D13*
X115798600Y-153416000D03*
X115798600Y-155956000D03*
X115798600Y-158496000D03*
X115798600Y-161036000D03*
X115798600Y-163576000D03*
X115798600Y-166116000D03*
X115798600Y-168656000D03*
X115798600Y-171196000D03*
X141224000Y-153416000D03*
X141224000Y-155956000D03*
X141224000Y-158496000D03*
X141224000Y-161036000D03*
X141224000Y-163576000D03*
X141224000Y-166116000D03*
X141224000Y-168656000D03*
X141224000Y-171196000D03*
X118364000Y-150876000D03*
X120904000Y-150876000D03*
X123444000Y-150876000D03*
X125984000Y-150876000D03*
X128524000Y-150876000D03*
X131064000Y-150876000D03*
X133604000Y-150876000D03*
X136144000Y-150876000D03*
X138684000Y-150876000D03*
X118364000Y-173736000D03*
X120904000Y-173736000D03*
X123444000Y-173736000D03*
X125984000Y-173736000D03*
X128524000Y-173736000D03*
X131064000Y-173736000D03*
X133604000Y-173736000D03*
X136144000Y-173736000D03*
X138684000Y-173736000D03*
D14*
X140000000Y-176250000D02*
X141224000Y-175026000D01*
X141224000Y-175026000D02*
X141224000Y-171196000D01*
X125000000Y-176250000D02*
X140000000Y-176250000D01*
X124250000Y-177000000D02*
X125000000Y-176250000D01*
X124250000Y-179000000D02*
X124250000Y-177000000D01*
X125750000Y-180500000D02*
X124250000Y-179000000D01*
X125757919Y-180500000D02*
X125750000Y-180500000D01*
X127230000Y-180770000D02*
X126027919Y-180770000D01*
X126027919Y-180770000D02*
X125757919Y-180500000D01*
X143500000Y-151750000D02*
X142626000Y-150876000D01*
X142626000Y-150876000D02*
X138684000Y-150876000D01*
X143500000Y-174250000D02*
X143500000Y-151750000D01*
X140500000Y-177250000D02*
X143500000Y-174250000D01*
X134750000Y-177250000D02*
X140500000Y-177250000D01*
X133770000Y-178230000D02*
X134750000Y-177250000D01*
X129770000Y-178230000D02*
X133770000Y-178230000D01*
M02*
